<?xml version="1.0" encoding="UTF-8"?>
<svg id="Layer_1" data-name="Layer 1" xmlns="http://www.w3.org/2000/svg" viewBox="0 0 86.36 115.25">
  <defs>
    <style>
      .cls-1 {
        fill: #cd83bc;
        opacity: .2;
      }
    </style>
  </defs>
  <path class="cls-1" d="m69.06,59.2c2.86-3.89,5.71-8.52,8.29-13.67,8.48-16.9,10.9-32.83,5.42-35.58-5.48-2.75-16.8,8.72-25.27,25.62-2.49,4.97-4.45,9.85-5.85,14.34-2.26-.65-4.61-1.17-7.03-1.52s-4.83-.51-7.18-.52c-.08-4.7-.58-9.94-1.58-15.4C32.49,13.86,24.86-.33,18.83.76c-6.03,1.09-8.19,17.06-4.82,35.66,1.03,5.66,2.45,10.91,4.1,15.45-9.26,4.27-15.82,11.68-17.13,20.81-1.92,13.36,7.95,26.33,23.26,32.46.47.19.76.67.68,1.17l-.33,2.32c-.27,1.88,1.03,3.61,2.91,3.88s3.61-1.03,3.88-2.91l.43-3.02c.09-.6.64-1.02,1.24-.93s1.02.64.93,1.24l-.61,4.25c-.17,1.2.66,2.31,1.86,2.48s2.31-.66,2.48-1.86l.61-4.25c.09-.6.64-1.02,1.24-.93s1.02.64.93,1.24l-.43,3.02c-.27,1.88,1.03,3.61,2.91,3.88h0c1.88.27,3.61-1.03,3.88-2.91l.33-2.32c.07-.5.48-.88.99-.93,16.42-1.57,29.55-11.23,31.47-24.59,1.31-9.14-2.89-18.09-10.57-24.8Zm-14.25,39.73c-4.93-.71-8.25-5.93-7.43-11.66s5.49-9.8,10.41-9.1,8.25,5.93,7.43,11.66-5.49,9.8-10.41,9.1Zm-41.66-16.58c.82-5.73,5.49-9.8,10.41-9.1,4.93.71,8.25,5.93,7.43,11.66-.82,5.73-5.49,9.8-10.41,9.1-4.93-.71-8.25-5.93-7.43-11.66Z"/>
</svg>