<svg xmlns="http://www.w3.org/2000/svg" viewBox="0 0 314.8169 8.2402"><defs><style>.a{fill:none;stroke:#35216b;stroke-linecap:round;stroke-miterlimit:10;}.b{fill:#35216b;}</style></defs><line class="a" x1="3.5723" y1="4.3747" x2="138.1692" y2="4.3747"/><line class="a" x1="311.2396" y1="4.3747" x2="176.6428" y2="4.3747"/><circle class="b" cx="3.5723" cy="4.3747" r="3.4184"/><circle class="b" cx="311.2396" cy="4.3747" r="3.4184"/><path class="b" d="M157.406,8.236l-3.72-3.72a2.6462,2.6462,0,0,1,0-3.7434,2.71,2.71,0,0,1,3.72-.024,2.7091,2.7091,0,0,1,3.72.024,2.6469,2.6469,0,0,1,0,3.7434ZM155.5586.8147a1.8291,1.8291,0,0,0-1.2937,3.1227l3.1411,3.1419,3.1414-3.1419a1.8291,1.8291,0,0,0,0-2.5867,1.8723,1.8723,0,0,0-2.5874,0l-.554.5536-.554-.5536A1.8172,1.8172,0,0,0,155.5586.8147Z"/><circle class="a" cx="139.8899" cy="4.3747" r="1.7207"/><circle class="a" cx="174.9221" cy="4.3747" r="1.7207"/></svg>