<svg xmlns="http://www.w3.org/2000/svg" viewBox="0 0 13.5068 13.5039"><defs><style>.a{fill:#f1a341;}</style></defs><path class="a" d="M4.8371,7.3405A1.25,1.25,0,0,1,6.6054,5.5722l.148.148.148-.148A1.25,1.25,0,0,1,8.67,7.3405L6.7534,9.2568Z"/><path class="a" d="M13.5068,6.751a.25.25,0,0,0-.0732-.1768L12.3613,5.502A5.7382,5.7382,0,0,0,8.0078,1.1484L6.93.07a.2574.2574,0,0,0-.3535,0L5.4879,1.1587A5.7251,5.7251,0,0,0,1.147,5.5L.0732,6.5742a.25.25,0,0,0,0,.3535L1.1465,8.001A5.7381,5.7381,0,0,0,5.5,12.3545l1.0762,1.0762a.25.25,0,0,0,.3535,0l1.0754-1.0752A5.7384,5.7384,0,0,0,12.3616,8l1.072-1.0718A.2494.2494,0,0,0,13.5068,6.751ZM12.0173,5.158,8.3511,1.4917A5.4966,5.4966,0,0,1,12.0173,5.158ZM5.1479,1.4988,1.4907,5.1565A5.4838,5.4838,0,0,1,5.1479,1.4988ZM1.4905,8.345l3.6662,3.6662A5.4966,5.4966,0,0,1,1.4905,8.345Zm6.855,3.67,3.6723-3.6718A5.4963,5.4963,0,0,1,8.3455,12.0151ZM6.7529,12.9.6035,6.751,6.7529.6006l6.15,6.15Z"/></svg>