<svg xmlns="http://www.w3.org/2000/svg" viewBox="0 0 398.5621 52.4719"><defs><style>.a{fill:none;stroke:#f1a341;stroke-linecap:round;stroke-miterlimit:10;stroke-width:2px;}</style></defs><path class="a" d="M.8413,33.1125A88.3286,88.3286,0,0,0,49.7445,23.048,86.6508,86.6508,0,0,0,76.0671,1.0461"/><path class="a" d="M397.7208,33.1125A88.3288,88.3288,0,0,1,348.8176,23.048,86.6521,86.6521,0,0,1,322.495,1.0461"/><path class="a" d="M.8413,45.38c15.3908,4.7,31.9283.7334,42.71-10.3321C56.8258,21.4234,55.0618,3.5154,54.7768,1.0461"/><path class="a" d="M397.7208,45.38c-15.3908,4.7-31.9282.7334-42.71-10.3321C341.7364,21.4234,343.5,3.5154,343.7854,1.0461"/></svg>