<svg xmlns="http://www.w3.org/2000/svg" xmlns:xlink="http://www.w3.org/1999/xlink" viewBox="0 0 398.5621 52.4719"><defs><style>.a{fill:none;}.b{fill:url(#a);}.c{clip-path:url(#b);}.d{opacity:0.6;}.e{fill:url(#c);}.f{fill:url(#d);}</style><linearGradient id="a" x1="199.2811" y1="84.2188" x2="199.2811" y2="3.7026" gradientUnits="userSpaceOnUse"><stop offset="0" stop-color="#d488ff"/><stop offset="1" stop-color="#6200b0"/></linearGradient><clipPath id="b"><rect class="a" x="0.8413" y="1.0461" width="396.8795" height="51.4258" rx="7.0918"/></clipPath><linearGradient id="c" x1="299.4521" y1="-95.0519" x2="298.2908" y2="57.8513" gradientUnits="userSpaceOnUse"><stop offset="0" stop-color="#5427c1"/><stop offset="0.7" stop-color="#371675" stop-opacity="0.5"/><stop offset="1" stop-color="#1a0429" stop-opacity="0"/></linearGradient><linearGradient id="d" x1="101.077" y1="-96.5585" x2="99.9157" y2="56.3447" xlink:href="#c"/></defs><rect class="b" x="0.8413" y="1.0461" width="396.8795" height="51.4258" rx="7.0918"/><g class="c"><g class="d"><path class="e" d="M397.8408-25.6723V3.45A125.7691,125.7691,0,0,1,383.99,13.1067c-.0205,2.252-.0888,4.5041-.2253,6.7562a99.38,99.38,0,0,1-4.1458,23.8524q-.9426,2.964-2.131,5.9038c-.8264,1.9566-1.7074,3.9036-2.7388,5.8263A61.5057,61.5057,0,0,1,371.3,61.1409a58.9551,58.9551,0,0,1-4.296,5.4776,52.8918,52.8918,0,0,1-11.5972,9.7008,56.8885,56.8885,0,0,1-15.6,6.6981,82.86,82.86,0,0,1-17.5051,2.4216c-5.785.2325-11.4538.0823-17.02-.1937-11.14-.5667-21.9514-1.6467-32.6744-2.15-10.6957-.494-21.3709-.5279-31.4655,1.1478a67.9763,67.9763,0,0,0-14.3565,3.9326l-1.68.6732-1.5982.7749-1.605.775c-.5123.2808-1.0108.5763-1.5231.862a45.42,45.42,0,0,0-5.7166,3.768,54.862,54.862,0,0,0-4.9039,4.4218,57.52,57.52,0,0,0-4.2,4.8625,59.856,59.856,0,0,0-3.5038,5.1918,40.9094,40.9094,0,0,0-2.7729,5.4583,28.7678,28.7678,0,0,1,1.4821-5.7682,40.2173,40.2173,0,0,1,2.5066-5.6277,47.0556,47.0556,0,0,1,3.4491-5.4195,45.9685,45.9685,0,0,1,4.5009-5.1047,41.2182,41.2182,0,0,1,5.71-4.5622c.5191-.3536,1.0245-.7168,1.5572-1.0607l1.68-.9686,1.687-.9638,1.7894-.8718a68.825,68.825,0,0,1,15.6815-5.1918,111.5616,111.5616,0,0,1,16.87-2.1165c5.6552-.31,11.283-.3,16.8494-.1549,11.126.2906,22.047,1.1381,32.7564,1.448,5.3478.155,10.641.17,15.7771-.15a68.2353,68.2353,0,0,0,14.5-2.3c.5464-.16,1.1064-.31,1.646-.4843l1.564-.5763c1.045-.3487,2.09-.8427,3.1144-1.298a44.6662,44.6662,0,0,0,5.7372-3.211,43.2825,43.2825,0,0,0,9.22-8.1849,53.5178,53.5178,0,0,0,10.3337-20.4574,91.52,91.52,0,0,0,3.0257-21.7312c-.5055.2373-1.004.47-1.51.7023A158.0257,158.0257,0,0,1,351.11,27.8783a178.879,178.879,0,0,1-19.2058,4.8673c-3.2305.6732-6.4474,1.2108-9.6574,1.7726-3.19.5134-6.3861,1.0316-9.5415,1.4917-6.3245.9492-12.5807,1.8113-18.7618,2.7848-3.1008.4649-6.1606.988-9.2341,1.4965-3.0666.5231-6.1128,1.0994-9.1657,1.6612l-4.5419.9105c-1.5163.3051-3.0394.5957-4.5351.94l-4.5214.9977-2.2607.4988-2.1583.5425-2.1651.5376c-.7171.1888-1.4616.3438-2.1514.5666l-4.2414,1.264c-.7171.1938-1.3865.46-2.0763.6926l-2.0626.7217c-.683.2469-1.4.46-2.0626.7313l-2.0149.7942a115.9514,115.9514,0,0,0-15.3742,7.3858,125.9551,125.9551,0,0,0-13.7213,9.2068c-4.3438,3.2885-8.4213,6.8143-12.6559,10.253.683-.8573,1.366-1.71,2.0627-2.5621q-1.086,1.264-2.0627,2.5621a52.8379,52.8379,0,0,0,4.4805-7.2357c1.284-2.499,2.3358-5.1047,3.4628-7.6667,1.0859-2.5717,2.2675-5.11,3.4491-7.4342.2868-.5812.5464-1.1381.84-1.69.2118-.5327.5328-1.0848.6967-1.5691a7.6229,7.6229,0,0,0,.7513-2.6638l.0342-.3c0-.0969-.0206-.1986-.0274-.2955l-.02-.3-.0068-.155-.041-.2131a13.8281,13.8281,0,0,0-.3415-1.5644,7.5939,7.5939,0,0,0-1.2977-2.6007,23.46,23.46,0,0,0-2.5544-2.8672l-1.55-1.511c-.26-.2567-.5327-.5085-.8059-.7652l-.41-.3826-.4371-.4214a10.05,10.05,0,0,1-3.0188-4.63,7.866,7.866,0,0,1-.3552-2.378,7.07,7.07,0,0,1,.0547-1.1478,6.6039,6.6039,0,0,1,.1775-1.1091,15.8072,15.8072,0,0,1,1.5641-4.0925c.683-1.2882,1.4752-2.4942,2.2607-3.7486a28.5694,28.5694,0,0,1,.6693,4.0392,23.4106,23.4106,0,0,0,.7445,3.7486l.1366.4359.1708.4165a5.2909,5.2909,0,0,0,.3551.8088,4.3205,4.3205,0,0,0,.4371.7507,5.3092,5.3092,0,0,0,.4781.6926,8.3628,8.3628,0,0,0,1.1679,1.1768l.6557.4989c.26.14.4986.2857.7376.431l.4986.3.54.3342c.362.2228.724.4456,1.0791.678.7172.46,1.4548.93,2.1514,1.4239a29.9186,29.9186,0,0,1,4.1185,3.41,15.5373,15.5373,0,0,1,1.7962,2.1842,13.6767,13.6767,0,0,1,1.27,2.4167,17.9716,17.9716,0,0,1,.7172,2.2957l.0683.2712.0478.339.0956.6829c.0273.2276.0683.4553.0751.6829l-.0068.6829a10.74,10.74,0,0,1-.4166,2.654c-.13.4117-.2869.8185-.4372,1.2254a4.9564,4.9564,0,0,1-.2117.4794,101.464,101.464,0,0,1,13.5369-8.0735A115.5084,115.5084,0,0,1,253.8249,39.24l2.288-.7459L258.38,37.85l4.5351-1.2931c1.5025-.4408,3.0392-.8331,4.5623-1.24l4.59-1.2059c3.0735-.76,6.1538-1.53,9.2478-2.2473,3.0939-.707,6.1947-1.4287,9.3023-2.0825,6.2084-1.3512,12.4169-2.5959,18.516-3.86,3.0666-.62,6.065-1.2786,9.0633-1.9276,2.95-.6828,5.9147-1.3512,8.7628-2.1116a149.9353,149.9353,0,0,0,16.4806-5.187,135.1681,135.1681,0,0,0,15.0259-6.7949,118.5731,118.5731,0,0,0,11.6245-7.0564,198.2813,198.2813,0,0,0-4.938-28.6278q-1.3832-5.6375-3.06-11.2361c-.5533-1.87-1.1475-3.7292-1.7485-5.5841-.5874-1.86-1.2294-3.71-1.8987-5.5212a135.7031,135.7031,0,0,0-9.9239-21.4019A176.3653,176.3653,0,0,0,317.5755-108.8a230.5771,230.5771,0,0,0-20.21-17.44q-4.3438-3.3418-8.8789-6.5431A328.7347,328.7347,0,0,1,328.21-118.4863c.963.92,1.9123,1.85,2.8549,2.78q4.9174,4.8745,9.3911,9.9672c3.0121,3.3756,5.8328,6.8433,8.5306,10.3546l1.9944,2.6444L352.9-90.0667c1.3045,1.7726,2.4587,3.5984,3.6813,5.4,2.3153,3.6469,4.5829,7.3131,6.5636,11.0617a142.3066,142.3066,0,0,1,10.0058,22.8984c.6693,1.9518,1.2909,3.8793,1.8578,5.8069q.8606,2.8986,1.6391,5.8021,1.5573,5.8117,2.814,11.6574c1.4206,6.6545,2.5543,13.338,3.34,20.0555.1844-.17.3756-.3391.5532-.5086a93.6517,93.6517,0,0,0,9.4731-10.5822A85.8045,85.8045,0,0,0,397.8408-25.6723Z"/><path class="f" d="M199.2811,114.9628a50.2444,50.2444,0,0,0-6.2768-10.65,58.7993,58.7993,0,0,0-4.2-4.8625A54.8759,54.8759,0,0,0,183.9,95.0284a45.023,45.023,0,0,0-5.7235-3.768c-.5054-.2857-1.004-.5812-1.5163-.862l-1.605-.775-1.5982-.7749-1.68-.6732a67.9262,67.9262,0,0,0-14.3633-3.9326c-10.0878-1.6757-20.763-1.6418-31.4587-1.1478-10.723.5037-21.5347,1.5837-32.6744,2.15-5.5664.276-11.2352.4262-17.02.1937a82.8607,82.8607,0,0,1-17.5051-2.4216,56.8878,56.8878,0,0,1-15.5995-6.6981,52.7319,52.7319,0,0,1-11.5973-9.7008,58.9551,58.9551,0,0,1-4.296-5.4776,61.5276,61.5276,0,0,1-3.4491-5.6955c-1.0313-1.9227-1.9192-3.87-2.7388-5.8263-.7922-1.9566-1.5094-3.9278-2.1309-5.9038a99.38,99.38,0,0,1-4.1458-23.8524c-.13-2.1407-.1981-4.2765-.2254-6.4172A127.674,127.674,0,0,1,.7213,3.9V-24.7812q2.049,3.2182,4.4463,6.3058A94.3347,94.3347,0,0,0,14.6407-7.8932c.3484.3294.71.6538,1.0587.9783.7922-6.8772,1.9465-13.7157,3.4012-20.5252q1.26-5.8408,2.814-11.6574.7787-2.906,1.6392-5.8021c.5669-1.9276,1.1815-3.8551,1.8509-5.8069A142.942,142.942,0,0,1,35.4174-73.6049c1.9807-3.7486,4.2482-7.4148,6.5567-11.0617,1.2226-1.8017,2.3837-3.6275,3.6882-5.4L47.5815-92.74l1.9943-2.6444c2.6978-3.5113,5.5186-6.979,8.5306-10.3546q4.477-5.0853,9.3911-9.9672c.9426-.93,1.8919-1.86,2.8481-2.78h.0069a328.7327,328.7327,0,0,1,39.7228-14.2969q-4.5384,3.1963-8.8789,6.5431a230.5771,230.5771,0,0,0-20.21,17.44A176.3653,176.3653,0,0,0,50.04-69.527a135.6935,135.6935,0,0,0-9.9238,21.4019c-.6694,1.8113-1.3114,3.6614-1.8988,5.5212-.601,1.8549-1.1952,3.7146-1.7484,5.5841q-1.68,5.5938-3.06,11.2361A198.601,198.601,0,0,0,28.4372,3.2121,118.158,118.158,0,0,0,39.529,9.9005a134.7061,134.7061,0,0,0,15.0327,6.7949,149.3474,149.3474,0,0,0,16.4738,5.187c2.848.76,5.819,1.4288,8.77,2.1116,2.9915.649,5.99,1.3077,9.0565,1.9276,6.0991,1.2641,12.3075,2.5088,18.5159,3.86,3.1076.6538,6.2084,1.3755,9.3024,2.0825,3.0939.7169,6.1743,1.4869,9.2546,2.2473l4.5828,1.2059c1.5231.4068,3.06.7991,4.5624,1.24l4.5351,1.2931,2.2675.6441,2.288.7459a115.878,115.878,0,0,1,17.4505,6.9983,102.3292,102.3292,0,0,1,13.5369,8.0735,3.7691,3.7691,0,0,1-.2185-.4794c-.15-.4069-.3073-.8137-.4371-1.2254a10.7294,10.7294,0,0,1-.41-2.654l-.0137-.6829c.0069-.2276.0478-.4553.0752-.6829l.0956-.6829.0478-.339.0683-.2712a17.97,17.97,0,0,1,.7171-2.2957,13.6767,13.6767,0,0,1,1.27-2.4167,15.5512,15.5512,0,0,1,1.7962-2.1842,29.5683,29.5683,0,0,1,4.1253-3.41c.69-.494,1.4275-.9638,2.1446-1.4239.3552-.2324.7172-.4552,1.0792-.678l.54-.3342.4986-.3c.2391-.1453.4849-.2906.7377-.431l.6556-.4989a8.3521,8.3521,0,0,0,1.1679-1.1768,5.345,5.345,0,0,0,.4849-.6926,4.7618,4.7618,0,0,0,.43-.7507,4.7,4.7,0,0,0,.3552-.8088l.1707-.4165.1367-.4359a23.4106,23.4106,0,0,0,.7444-3.7486,29.5811,29.5811,0,0,1,.6694-4.0392c.7854,1.2544,1.5777,2.46,2.2607,3.7486a15.8034,15.8034,0,0,1,1.564,4.0925,6.604,6.604,0,0,1,.1776,1.1091,7.07,7.07,0,0,1,.0546,1.1478,7.8659,7.8659,0,0,1-.3551,2.378,10.0338,10.0338,0,0,1-3.012,4.63l-.444.4214-.41.3826c-.2732.2567-.5464.5085-.8059.7652l-1.55,1.511a24.0534,24.0534,0,0,0-2.5544,2.8672,7.5975,7.5975,0,0,0-1.2977,2.6007,13.8281,13.8281,0,0,0-.3415,1.5644l-.041.2131-.0068.155-.02.3c0,.0969-.0273.1986-.0273.2955l.0341.3a7.6255,7.6255,0,0,0,.7514,2.6638c.1639.4843.4849,1.0364.6966,1.5691.2937.5522.5532,1.1091.84,1.69,1.1816,2.3247,2.3632,4.8625,3.4491,7.4342,1.1269,2.562,2.1787,5.1677,3.4628,7.6667a52.23,52.23,0,0,0,4.4872,7.2357q-.9834-1.3-2.0694-2.5621,1.0449,1.2786,2.0694,2.5621c-4.2414-3.4387-8.3188-6.9645-12.6627-10.253a125.9551,125.9551,0,0,0-13.7213-9.2068A115.9454,115.9454,0,0,0,157.2428,51.15l-2.0148-.7942c-.6625-.2713-1.38-.4844-2.0558-.7313l-2.07-.7217c-.69-.2325-1.3591-.4988-2.0762-.6926l-4.2415-1.264c-.69-.2228-1.4342-.3778-2.1514-.5666l-2.1651-.5376L138.31,45.299,136.05,44.8l-4.5146-.9977c-1.5026-.3439-3.0257-.6345-4.5419-.94l-4.5419-.9105c-3.053-.5618-6.0992-1.1381-9.1658-1.6612-3.0735-.5085-6.1333-1.0316-9.2341-1.4965C97.87,37.8212,91.6141,36.9591,85.29,36.01c-3.1554-.46-6.345-.9783-9.5414-1.4917-3.21-.5618-6.427-1.0994-9.6507-1.7726a178.603,178.603,0,0,1-19.2126-4.8673A158.0328,158.0328,0,0,1,28.7855,20.909c-.3142-.14-.6215-.2906-.9357-.4359a91.4206,91.4206,0,0,0,3.0188,21.4648A53.5178,53.5178,0,0,0,41.2023,62.3953a43.2849,43.2849,0,0,0,9.22,8.1849,44.6662,44.6662,0,0,0,5.7372,3.211c1.0244.4553,2.0694.9493,3.1144,1.298l1.5572.5763c.5464.1744,1.1065.3245,1.6529.4843a68.2333,68.2333,0,0,0,14.5,2.3c5.1293.32,10.4293.3051,15.7772.15,10.7025-.31,21.63-1.1574,32.7563-1.448,5.5664-.1453,11.1943-.155,16.85.1549a111.5619,111.5619,0,0,1,16.87,2.1165,68.9359,68.9359,0,0,1,15.6815,5.1918l1.7894.8718,1.6871.9638,1.68.9686c.5327.3439,1.0382.7071,1.5572,1.0607a41.2182,41.2182,0,0,1,5.71,4.5622,45.2005,45.2005,0,0,1,4.4942,5.1047,46.2454,46.2454,0,0,1,3.4559,5.4195,40.2405,40.2405,0,0,1,2.5066,5.6277A28.7745,28.7745,0,0,1,199.2811,114.9628Z"/></g></g></svg>