<svg xmlns="http://www.w3.org/2000/svg" xmlns:xlink="http://www.w3.org/1999/xlink" viewBox="0 0 64.9027 64.9033"><defs><style>.a{fill:url(#a);}.b{fill:none;stroke:#240749;stroke-miterlimit:10;}.c{fill:#f1a341;}</style><linearGradient id="a" x1="-792.6655" y1="167.1656" x2="111.818" y2="574.8201" gradientUnits="userSpaceOnUse"><stop offset="0" stop-color="#5c1b99"/><stop offset="0.2861" stop-color="#240749" stop-opacity="0"/><stop offset="1" stop-color="#0f002b" stop-opacity="0"/></linearGradient></defs><circle class="a" cx="-300.7334" cy="388.8814" r="408.5645"/><circle class="b" cx="-106.4814" cy="464.954" r="615.4839"/><path class="c" d="M53.5852,61.6775a1,1,0,0,1,0-2,6.0986,6.0986,0,0,0,6.0918-6.0918V11.3176a6.0986,6.0986,0,0,0-6.0918-6.0918H11.3176a6.0985,6.0985,0,0,0-6.0918,6.0918V53.5857a6.0985,6.0985,0,0,0,6.0918,6.0918H13.71a1,1,0,0,1,0,2H11.3176a8.1009,8.1009,0,0,1-8.0918-8.0918V11.3176a8.1009,8.1009,0,0,1,8.0918-8.0918H53.5852a8.1009,8.1009,0,0,1,8.0918,8.0918V53.5857A8.1009,8.1009,0,0,1,53.5852,61.6775Z"/><path class="c" d="M41.39,56.88c-.6992,2.5319-1.2661,3.0988-3.7981,3.7979,2.532.6992,3.0989,1.266,3.7981,3.7981.6993-2.5321,1.2659-3.0989,3.7979-3.7981C42.6557,59.9784,42.0891,59.4115,41.39,56.88Z"/><path class="c" d="M29.7766,61.6775H22.2277a1,1,0,0,1,0-2h7.5489a1,1,0,0,1,0,2Z"/></svg>