<svg xmlns="http://www.w3.org/2000/svg" xmlns:xlink="http://www.w3.org/1999/xlink" viewBox="0 0 399.3397 52.4719"><defs><style>.a{fill:url(#a);}.b{opacity:0.3;}.c{fill:url(#b);}.d{fill:url(#c);}.e{fill:url(#d);}.f{fill:url(#e);}.g{fill:none;}.h{fill:#f1a341;}.i{fill:#2e0476;}</style><linearGradient id="a" x1="199.6698" y1="84.2188" x2="199.6698" y2="3.7026" gradientUnits="userSpaceOnUse"><stop offset="0" stop-color="#d488ff"/><stop offset="1" stop-color="#6200b0"/></linearGradient><linearGradient id="b" x1="213.2675" y1="-6.4516" x2="213.2675" y2="50.4725" gradientUnits="userSpaceOnUse"><stop offset="0" stop-color="#5427c1"/><stop offset="0.7" stop-color="#371675" stop-opacity="0.5"/><stop offset="1" stop-color="#1a0429" stop-opacity="0"/></linearGradient><linearGradient id="c" x1="311.4802" y1="-6.4516" x2="311.4802" y2="50.4725" xlink:href="#b"/><linearGradient id="d" x1="87.4852" y1="-6.4516" x2="87.4852" y2="50.4725" xlink:href="#b"/><linearGradient id="e" x1="185.5033" y1="-6.4516" x2="185.5033" y2="50.4725" xlink:href="#b"/></defs><rect class="a" x="1.2301" y="1.0461" width="396.8795" height="51.4258" rx="7.0918"/><g class="b"><path class="c" d="M224.2351,48.5919c.02.22.06.45.07.68l-.01.68a10.1052,10.1052,0,0,1-.38,2.52h-11.63c.01-.02.02-.05.03-.07a7.6557,7.6557,0,0,0,.75-2.67l.04-.3a2.8552,2.8552,0,0,0-.03-.29l-.02-.3-.01-.16-.04-.21a13.5564,13.5564,0,0,0-.34-1.56,7.5107,7.5107,0,0,0-1.3-2.61,22.5858,22.5858,0,0,0-2.55-2.86l-1.55-1.51c-.26-.26-.53-.51-.81-.77l-.41-.38-.43-.42a10.0817,10.0817,0,0,1-3.02-4.63,8,8,0,0,1-.36-2.38,7.25,7.25,0,0,1,.06-1.15,6.7543,6.7543,0,0,1,.17-1.11,16.0516,16.0516,0,0,1,1.57-4.09c.68-1.29,1.47-2.49,2.26-3.75a29.3488,29.3488,0,0,1,.67,4.04,23.9527,23.9527,0,0,0,.74,3.75l.14.43.17.42a4.5409,4.5409,0,0,0,.36.81,4.2785,4.2785,0,0,0,.43.75,5.6272,5.6272,0,0,0,.48.69,8.6988,8.6988,0,0,0,1.17,1.18l.65.5c.26.14.5.28.74.43l.5.3.54.33c.36.23.72.45,1.08.68.72.46,1.45.93,2.15,1.43a29.3421,29.3421,0,0,1,4.12,3.41,15.2542,15.2542,0,0,1,1.8,2.18,14.0592,14.0592,0,0,1,1.27,2.42,19.0456,19.0456,0,0,1,.71,2.29l.07.27.05.34Z"/><path class="d" d="M397.0352,4.3918a123.9341,123.9341,0,0,1-12.66,8.71q-.03,3.39-.22,6.76a99.0745,99.0745,0,0,1-4.15,23.85q-.945,2.97-2.13,5.91c-.41.95-.82,1.9-1.27,2.85h-12.46a61.967,61.967,0,0,0,3.94-10.53,91.6909,91.6909,0,0,0,3.02-21.74c-.5.24-1,.47-1.51.71a158.1953,158.1953,0,0,1-18.1,6.97,179.3,179.3,0,0,1-19.2,4.86c-3.23.68-6.45,1.21-9.66,1.78-3.19.51-6.39,1.03-9.54,1.49-6.33.95-12.58,1.81-18.76,2.78-3.1.47-6.16.99-9.24,1.5-3.06.52-6.11,1.1-9.16,1.66l-4.54.91c-1.52.31-3.04.6-4.54.94l-6.78,1.5-2.16.54-2.16.54c-.72.19-1.47.34-2.16.56l-4.24,1.27c-.71.19-1.38.46-2.07.69l-2.07.72c-.68.25-1.4.46-2.06.73l-2.01.8c-1.09.42-2.16.86-3.22,1.32h-12a105.2388,105.2388,0,0,1,10.84-6.23,116.3571,116.3571,0,0,1,17.45-7l2.29-.75,2.26-.64,4.54-1.29c1.5-.45,3.04-.84,4.56-1.24l4.59-1.21c3.07-.76,6.16-1.53,9.25-2.25,3.09-.7,6.19-1.43,9.3-2.08,6.21-1.35,12.42-2.6,18.52-3.86,3.06-.62,6.06-1.28,9.06-1.93,2.95-.68,5.92-1.35,8.76-2.11a150.4921,150.4921,0,0,0,16.48-5.19,133.1432,133.1432,0,0,0,15.03-6.79,117.61,117.61,0,0,0,11.62-7.06c-.06-.6-.11-1.2-.18-1.8h20.72A7.083,7.083,0,0,1,397.0352,4.3918Z"/><path class="e" d="M162.0051,46.2419a104.3564,104.3564,0,0,1,10.85,6.23h-12.01q-1.59-.69-3.21-1.32l-2.02-.8c-.66-.27-1.38-.48-2.05-.73l-2.07-.72c-.69-.23-1.36-.5-2.08-.69l-4.24-1.27c-.69-.22-1.44-.37-2.15-.56l-2.17-.54-2.16-.54-2.26-.5-4.51-1c-1.5-.34-3.03-.63-4.54-.94l-4.55-.91c-3.05-.56-6.09-1.14-9.16-1.66-3.07-.51-6.13-1.03-9.24-1.5-6.18-.97-12.43-1.83-18.76-2.78-3.15-.46-6.34-.98-9.54-1.49-3.21-.57-6.43-1.1-9.65-1.78a178.883,178.883,0,0,1-19.21-4.86,158.9116,158.9116,0,0,1-18.1-6.97c-.32-.14-.62-.29-.94-.44a91.5212,91.5212,0,0,0,3.02,21.47,60.3233,60.3233,0,0,0,3.94,10.53h-12.47q-.66-1.4248-1.26-2.85c-.79-1.96-1.51-3.93-2.13-5.91a99.0747,99.0747,0,0,1-4.15-23.85q-.1949-3.21-.22-6.42a128.1791,128.1791,0,0,1-12.85-8.75,7.093,7.093,0,0,1,6.21-3.65h20.72c-.08.72-.15,1.45-.22,2.17a118.4893,118.4893,0,0,0,11.09,6.69,133.2983,133.2983,0,0,0,15.04,6.79,149.6274,149.6274,0,0,0,16.47,5.19c2.85.76,5.82,1.43,8.77,2.11,2.99.65,5.99,1.31,9.06,1.93,6.09,1.26,12.3,2.51,18.51,3.86,3.11.65,6.21,1.38,9.3,2.08,3.1.72,6.18,1.49,9.26,2.25l4.58,1.21c1.52.4,3.06.79,4.56,1.24l4.54,1.29,2.27.64,2.28.75A115.9263,115.9263,0,0,1,162.0051,46.2419Z"/><path class="f" d="M196.5352,31.3519a7.69,7.69,0,0,1-.36,2.38,9.98,9.98,0,0,1-3.01,4.63l-.44.42-.41.38c-.27.26-.55.51-.81.77l-1.55,1.51a24.2622,24.2622,0,0,0-2.55,2.86,7.6869,7.6869,0,0,0-1.3,2.61,13.5757,13.5757,0,0,0-.34,1.56l-.04.21-.01.16-.02.3c0,.09-.03.2-.03.29l.04.3a7.6513,7.6513,0,0,0,.75,2.67c.01.02.02.05.03.07h-11.62a9.6648,9.6648,0,0,1-.38-2.52l-.02-.68c.01-.23.05-.46.08-.68l.09-.69.05-.34.07-.27a17.5607,17.5607,0,0,1,.72-2.29,13.3936,13.3936,0,0,1,1.27-2.42,15.1848,15.1848,0,0,1,1.79-2.18,28.841,28.841,0,0,1,4.13-3.41c.69-.5,1.43-.97,2.14-1.43.36-.23.72-.45,1.08-.68l.54-.33.5-.3c.24-.15.48-.29.74-.43l.65-.5a7.6815,7.6815,0,0,0,1.17-1.18,5.6948,5.6948,0,0,0,.49-.69,6.0913,6.0913,0,0,0,.43-.75,4.4918,4.4918,0,0,0,.35-.81l.17-.42.14-.43a22.8553,22.8553,0,0,0,.74-3.75,30.93,30.93,0,0,1,.67-4.04c.79,1.26,1.58,2.46,2.26,3.75a15.6859,15.6859,0,0,1,1.57,4.09,8.0443,8.0443,0,0,1,.18,1.11A7.2732,7.2732,0,0,1,196.5352,31.3519Z"/></g><path class="g" d="M398.1052,8.1418v37.24a7.0909,7.0909,0,0,1-7.09,7.09H8.3252a7.0994,7.0994,0,0,1-7.1-7.09V8.1418a7.0891,7.0891,0,0,1,7.1-7.1h382.69a7.0972,7.0972,0,0,1,7.09,7.1Z"/><path class="h" d="M8.6013,34.4109c-2.68,0-5.1767-.1162-7.4521-.3018A1,1,0,0,1,.2331,33.031a1.01,1.01,0,0,1,1.0782-.916A86.8285,86.8285,0,0,0,49.658,22.1677,85.1464,85.1464,0,0,0,75.6765.42a1,1,0,1,1,1.5586,1.2519,87.107,87.107,0,0,1-26.626,22.2559A88.0508,88.0508,0,0,1,8.6013,34.4109Z"/><path class="h" d="M390.738,34.4109a88.0359,88.0359,0,0,1-42.0068-10.4834,87.1439,87.1439,0,0,1-26.627-22.2559A1,1,0,1,1,323.6628.42a85.1564,85.1564,0,0,0,26.02,21.748,86.8441,86.8441,0,0,0,48.3457,9.9473,1,1,0,0,1,.1621,1.9941C395.9148,34.2937,393.4167,34.4109,390.738,34.4109Z"/><path class="h" d="M14.2947,48.3484A45.7136,45.7136,0,0,1,.9382,46.3357a1,1,0,0,1,.584-1.9121c15.1592,4.63,31.1367.7685,41.7022-10.0742C55.8015,21.4412,54.5505,4.4382,54.1726,1.16A1,1,0,1,1,56.1589.9314C56.5554,4.366,57.865,22.1892,44.656,35.7458A42.1686,42.1686,0,0,1,14.2947,48.3484Z"/><path class="h" d="M385.0447,48.3484a42.1613,42.1613,0,0,1-30.36-12.6026C341.4753,22.1892,342.7849,4.366,343.1814.9314a1,1,0,0,1,1.9863.2285c-.3779,3.2783-1.6289,20.2822,10.9483,33.19,10.5634,10.8437,26.5429,14.7,41.7011,10.0742a1,1,0,1,1,.584,1.9121A45.718,45.718,0,0,1,385.0447,48.3484Z"/><path class="i" d="M25.5652,19.9346c-1.354,4.9033-2.4517,6.0009-7.3548,7.3548,4.9031,1.354,6.0008,2.4517,7.3548,7.3549,1.354-4.9032,2.4516-6.0009,7.3548-7.3549C28.0168,25.9355,26.9192,24.8379,25.5652,19.9346Z"/><path class="i" d="M373.7744,19.9346c-1.354,4.9033-2.4515,6.0009-7.3547,7.3548,4.9032,1.354,6.0007,2.4517,7.3547,7.3549,1.354-4.9032,2.4517-6.0009,7.3549-7.3549C376.2261,25.9355,375.1284,24.8379,373.7744,19.9346Z"/></svg>