<svg xmlns="http://www.w3.org/2000/svg" viewBox="0 0 13.5071 13.501"><defs><style>.a{fill:#460389;}.b{fill:none;stroke:#460389;stroke-linecap:round;stroke-miterlimit:10;stroke-width:0.5px;}</style></defs><path class="a" d="M6.7533,3.6948C6.1908,5.7318,5.7349,6.1879,3.6979,6.75c2.037.5625,2.4929,1.0185,3.0554,3.0555C7.3158,7.7689,7.7719,7.3129,9.809,6.75,7.7719,6.1879,7.3158,5.7318,6.7533,3.6948Z"/><path class="b" d="M9.1683.71A6.4484,6.4484,0,0,0,8.0075.3677"/><path class="b" d="M11.0775,1.8924a6.5424,6.5424,0,0,0-.6684-.5216"/><path class="b" d="M6.7514.2469a6.5022,6.5022,0,1,0,5.3107,2.7456"/><path class="a" d="M6.7536,3.6949C6.1911,5.732,5.735,6.188,3.698,6.7505,5.735,7.313,6.1911,7.769,6.7536,9.806,7.3161,7.769,7.7721,7.313,9.809,6.7505,7.7721,6.188,7.3161,5.732,6.7536,3.6949Z"/></svg>