<svg xmlns="http://www.w3.org/2000/svg" viewBox="0 0 31.1256 20.9694"><defs><style>.a{fill:#460389;}</style></defs><path class="a" d="M30.77,5.7783,28.2931.5443A.9509.9509,0,0,0,27.0269.0916l-5.234,2.4767a3.321,3.321,0,0,0-1.4822,1.3048,3.17,3.17,0,0,0,2.2407,4.7347,2.96,2.96,0,0,0,1-.0119c-1.1413,2.9147-2.6366,4.7374-4.461,5.4008-1.7236.626-3.3349.1172-5.1982-.4746-1.9541-.6191-4.17-1.3222-6.7266-.6142C4.37,13.6823,1.9979,15.902.1142,19.5065A.9983.9983,0,0,0,.537,20.8551a.982.982,0,0,0,.4619.1143.9981.9981,0,0,0,.8867-.5371C3.5038,17.34,5.46,15.4557,7.6991,14.8356c1.9883-.5508,3.7363.0059,5.5889.5928,2.0273.6435,4.123,1.3105,6.4863.4472,2.4191-.88,4.3279-3.1464,5.6953-6.71a3.0186,3.0186,0,0,0,.8848.8026,3.17,3.17,0,0,0,4.7341-2.2408A3.3208,3.3208,0,0,0,30.77,5.7783Z"/></svg>