<svg xmlns="http://www.w3.org/2000/svg" viewBox="0 0 13.5071 13.501"><defs><style>.a{fill:#460389;}</style></defs><path class="a" d="M6.7533,3.6948C6.1908,5.7318,5.7349,6.1879,3.6979,6.75c2.037.5625,2.4929,1.0185,3.0554,3.0555C7.3158,7.7689,7.7719,7.3129,9.809,6.75,7.7719,6.1879,7.3158,5.7318,6.7533,3.6948Z"/><path class="a" d="M13.4336,6.5742,12.3612,5.5017a5.7383,5.7383,0,0,0-4.3524-4.353L6.9307.07a.2575.2575,0,0,0-.3536,0L5.4893,1.1582A5.7256,5.7256,0,0,0,1.1469,5.5006L.0732,6.5742a.25.25,0,0,0,0,.3535l1.0733,1.073a5.7378,5.7378,0,0,0,4.3546,4.354l1.076,1.076a.25.25,0,0,0,.3536,0l1.0754-1.0755A5.7386,5.7386,0,0,0,12.3616,8l1.072-1.0721A.25.25,0,0,0,13.4336,6.5742ZM12.0173,5.1577,8.3521,1.4919A5.497,5.497,0,0,1,12.0173,5.1577ZM5.1489,1.4985,1.4907,5.1567A5.4839,5.4839,0,0,1,5.1489,1.4985ZM1.49,8.3447l3.6673,3.6668A5.4962,5.4962,0,0,1,1.49,8.3447Zm6.856,3.67,3.6714-3.6714A5.4962,5.4962,0,0,1,8.3464,12.0149ZM6.7539,12.9.6035,6.751l6.15-6.15,6.1494,6.15Z"/></svg>