<svg xmlns="http://www.w3.org/2000/svg" viewBox="0 0 13.5078 13.5068"><defs><style>.a{fill:#f1a341;}</style></defs><path class="a" d="M6.7539,3.6977c-.5625,2.037-1.0184,2.4931-3.0554,3.0556,2.037.5625,2.4929,1.0185,3.0554,3.0555.5625-2.037,1.0186-2.493,3.0557-3.0555C7.7725,6.1908,7.3164,5.7347,6.7539,3.6977Z"/><path class="a" d="M13.5078,6.7529a.25.25,0,0,0-.0732-.1767L12.3618,5.5037a5.7405,5.7405,0,0,0-4.3525-4.352L6.9307.0732a.25.25,0,0,0-.3536,0L5.489,1.1611A5.7286,5.7286,0,0,0,1.1472,5.5023L.0732,6.5762a.25.25,0,0,0,0,.3535L1.1464,8.0028A5.74,5.74,0,0,0,5.501,12.3574l1.0761,1.0762a.25.25,0,0,0,.3536,0l1.0758-1.0758a5.7406,5.7406,0,0,0,4.3563-4.3563L13.4346,6.93A.25.25,0,0,0,13.5078,6.7529ZM12.0178,5.16,8.3525,1.495A5.4989,5.4989,0,0,1,12.0178,5.16ZM5.1487,1.5016,1.4913,5.1583A5.4866,5.4866,0,0,1,5.1487,1.5016ZM1.4905,8.3469l3.6672,3.6673A5.4986,5.4986,0,0,1,1.4905,8.3469Zm6.8559,3.6709,3.6723-3.6722A5.498,5.498,0,0,1,8.3464,12.0178Zm-1.5925.8855-6.15-6.15L6.7539.6035l6.15,6.1494Z"/></svg>