<svg xmlns="http://www.w3.org/2000/svg" xmlns:xlink="http://www.w3.org/1999/xlink" viewBox="0 0 154.5551 65.8387"><defs><style>.a{fill:url(#a);}.b,.c{fill:none;stroke-miterlimit:10;}.b{stroke:#240749;}.c{stroke:#f1a341;stroke-linecap:round;stroke-width:2px;}.d{fill:#f1a341;}</style><linearGradient id="a" x1="-792.3931" y1="167.6332" x2="112.0905" y2="575.2877" gradientUnits="userSpaceOnUse"><stop offset="0" stop-color="#5c1b99"/><stop offset="0.2861" stop-color="#240749" stop-opacity="0"/><stop offset="1" stop-color="#0f002b" stop-opacity="0"/></linearGradient></defs><circle class="a" cx="-300.461" cy="389.3491" r="408.5645"/><circle class="b" cx="-106.2089" cy="465.4216" r="615.4839"/><path class="c" d="M103.3129,61.1452H11.59a7.0919,7.0919,0,0,1-7.0918-7.0919V11.7854A7.0919,7.0919,0,0,1,11.59,4.6935H143.188a7.0919,7.0919,0,0,1,7.0919,7.0919V54.0533a7.0919,7.0919,0,0,1-7.0919,7.0919"/><path class="d" d="M129.9923,57.3472c-.6991,2.5319-1.2659,3.0988-3.7979,3.7979,2.532.6992,3.0988,1.266,3.7979,3.7981.6993-2.5321,1.266-3.0989,3.7981-3.7981C131.2583,60.446,130.6916,59.8791,129.9923,57.3472Z"/><line class="c" x1="111.8305" y1="61.1452" x2="119.3789" y2="61.1452"/><line class="c" x1="143.188" y1="61.1452" x2="140.3616" y2="61.1452"/></svg>