<svg xmlns="http://www.w3.org/2000/svg" viewBox="0 0 314.8169 8.3949"><defs><style>.a{fill:#35216b;}.b{fill:none;stroke:#35216b;stroke-linecap:round;stroke-miterlimit:10;}</style></defs><path class="a" d="M157.4059.0043a6.2772,6.2772,0,0,1-4.1931,4.1931,6.2775,6.2775,0,0,1,4.1931,4.1933,6.2773,6.2773,0,0,1,4.1934-4.1933A6.277,6.277,0,0,1,157.4059.0043Z"/><line class="b" x1="3.5723" y1="4.1974" x2="138.1692" y2="4.1974"/><line class="b" x1="311.2396" y1="4.1974" x2="176.6428" y2="4.1974"/><path class="a" d="M311.24.7791a5.117,5.117,0,0,1-3.4184,3.4183A5.1176,5.1176,0,0,1,311.24,7.6158a5.1175,5.1175,0,0,1,3.4185-3.4184A5.117,5.117,0,0,1,311.24.7791Z"/><path class="a" d="M3.5724.7791A5.1174,5.1174,0,0,1,.1539,4.1974,5.1179,5.1179,0,0,1,3.5724,7.6158,5.1179,5.1179,0,0,1,6.9906,4.1974,5.1173,5.1173,0,0,1,3.5724.7791Z"/><path class="a" d="M311.24.7791a5.117,5.117,0,0,1-3.4184,3.4183A5.1176,5.1176,0,0,1,311.24,7.6158a5.1175,5.1175,0,0,1,3.4185-3.4184A5.117,5.117,0,0,1,311.24.7791Z"/><circle class="b" cx="139.8899" cy="4.1974" r="1.7207"/><circle class="b" cx="174.9221" cy="4.1974" r="1.7207"/></svg>