<svg xmlns="http://www.w3.org/2000/svg" viewBox="0 0 193.6394 78.38"><defs><style>.cls-1{fill:none;stroke:#202a6e;stroke-miterlimit:10;stroke-width:0.5px;}</style></defs><g id="Layer_2" data-name="Layer 2"><path class="cls-1" d="M142.3614-.3476c-26.2189,17.754-31.8341,27.9767-29.992,34.2276,4.21,14.27,47.05,7,60.39,30.97A30.9612,30.9612,0,0,1,176.47,78.8452"/><path class="cls-1" d="M154.7187-.3639c-20.4666,14.8676-24.933,23.8174-23.2593,29.4939,4.22,14.26,47.06,7,60.39,30.96a27.3594,27.3594,0,0,1,2.5163,6.1943"/><path class="cls-1" d="M69.6423,79.6281c-6.011-2.9654-11.1649-5.9121-15.4929-8.5881-28.63-17.72-52.23-43.08-48-50.32,5.49-9.37,52.95,19.62,72.78,2.32,6.452-5.6213,8.6085-14.9444,8.4916-25.2941"/></g></svg>