<svg xmlns="http://www.w3.org/2000/svg" viewBox="0 0 167.9115 78.3738"><defs><style>.cls-1{fill:none;stroke:#202a6e;stroke-miterlimit:10;stroke-width:0.5px;}</style></defs><g id="Layer_2" data-name="Layer 2"><path class="cls-1" d="M-.7049,47.6651c16.411-7.4571,31.2191-10.3026,44.2258-10.6983,34.3-1.04,69.02,14.56,86.71-3.87,8.1634-8.4916,9.8585-21.2849,8.85-34.0546"/><path class="cls-1" d="M-.8183,28.665a108.3331,108.3331,0,0,1,22.5892-3.1182c34.29-1.04,69.02,14.56,86.71-3.87,5.6821-5.93,8.2363-13.9285,8.9153-22.5525"/><path class="cls-1" d="M156.7872-1.3363c10.1591,44.1524,3.9785,60.0334-4.3963,65.9231-15.99,11.23-41.31-16.77-87.75-16.52a234.6549,234.6549,0,0,0-65.49,9.7007"/></g></svg>