<svg xmlns="http://www.w3.org/2000/svg" viewBox="0 0 18.7913 18.0229"><defs><style>.a{fill:#c5bde5;}</style></defs><path class="a" d="M8.8767,16.5768,5.0656,17.932A1.549,1.549,0,0,1,2.9983,16.43L3.11,12.3867A1.5485,1.5485,0,0,0,2.7888,11.4L.3222,8.1938a1.549,1.549,0,0,1,.79-2.43L4.9917,4.62a1.5493,1.5493,0,0,0,.84-.61L8.118.6733a1.5489,1.5489,0,0,1,2.5553,0L12.96,4.01a1.5489,1.5489,0,0,0,.84.61l3.88,1.1436a1.5489,1.5489,0,0,1,.79,2.43L16.0025,11.4a1.5491,1.5491,0,0,0-.3207.9871L15.793,16.43a1.549,1.549,0,0,1-2.0673,1.502L9.9146,16.5768A1.5485,1.5485,0,0,0,8.8767,16.5768Z"/></svg>