<svg xmlns="http://www.w3.org/2000/svg" xmlns:xlink="http://www.w3.org/1999/xlink" viewBox="0 0 75.5924 62.3791"><defs><style>.a{fill:url(#a);}.b{fill:url(#b);}.c{fill:url(#c);}.d{fill:url(#d);}.e{fill:url(#e);}.f{fill:url(#f);}.g{fill:#658adb;}.h{fill:none;}</style><linearGradient id="a" x1="8.856" y1="60.9266" x2="8.856" y2="31.751" gradientUnits="userSpaceOnUse"><stop offset="0" stop-color="#658adb"/><stop offset="1" stop-color="#090f33" stop-opacity="0"/></linearGradient><linearGradient id="b" x1="21.5913" y1="62.1497" x2="21.5913" y2="57.5412" xlink:href="#a"/><linearGradient id="c" x1="26.6019" y1="62.3242" x2="26.6019" y2="61.2214" xlink:href="#a"/><linearGradient id="d" x1="29.0568" y1="60.098" x2="29.0568" y2="14.2796" xlink:href="#a"/><linearGradient id="e" x1="47.5829" y1="60.2054" x2="47.5829" y2="16.5438" xlink:href="#a"/><linearGradient id="f" x1="62.839" y1="61.8887" x2="62.839" y2="52.0378" xlink:href="#a"/></defs><path class="a" d="M17.7119,62.3791h-3.96l-2.43-5.81s-12.51-8.58-11.23-12.68c.83-2.68,7.16,3.02,7.49,3.31-.13-.41-3.66-11.28-1.13-13.03a1.5586,1.5586,0,0,1,1.14-.21,3.1415,3.1415,0,0,1,2.14,1.74c1.07,1.78,1.65,4.63,1.98,7.29.12.95.2,1.88.26,2.72.16,2.26.15,3.94.15,3.94a31.38,31.38,0,0,1,1.37-3.13c.89-1.76,2.07-3.44,2.97-2.54.56.56.57,2.07.33,3.84a56.77,56.77,0,0,1-1.92,8.04Z"/><path class="b" d="M23.072,62.3791h-3.26c.37-.82.81-1.73,1.25-2.51.87-1.57,1.76-2.64,2.14-1.52a8.9347,8.9347,0,0,1-.07,3.74C23.1119,62.1792,23.0919,62.2791,23.072,62.3791Z"/><path class="c" d="M28.0219,62.3791h-2.84a1.49,1.49,0,0,1,.22-.58C26.0919,60.7992,27.1519,61.4792,28.0219,62.3791Z"/><path class="d" d="M36.3019,56.8592c-1.16,1.8-2.1,3.08-2.1,3.08l-.08,2.44h-4.85l-.86-7.21-.33-2.77s-11.3-6.95-10.42-9.1c.1-.26.38-.45.89-.55.01,0,.03-.01.04-.01a7.1651,7.1651,0,0,1,4.44.74,12.8567,12.8567,0,0,1,2.66,1.73,15.9864,15.9864,0,0,1,2.04,2l-.59-5.29-.61-5.43s-10.16-9.36-6.57-17.35c2.57-5.73,6.51,7.29,7.8,11.95.26.97.41,1.58.41,1.58s.2-.54.53-1.35c1.14-2.73,3.78-8.53,5.15-6.68,1.98,2.68,0,6.77-1.53,9.19a20.76,20.76,0,0,1-1.4,1.99l.35,3.82.87,9.66.27,2.94.11,1.23s.13-.22.37-.59c.39-.61,1.06-1.63,1.85-2.72.57-.78,1.2-1.6,1.82-2.32,1.58-1.78,3.14-2.94,3.76-1.47C41.2419,48.5492,38.4119,53.5791,36.3019,56.8592Z"/><path class="e" d="M54.3519,52.3991c-1.36,2.98-2.76,5.59-2.76,5.59s-.5,1.77-1.19,4.39h-5.07c-.43-.92-1.38-2.99-2.1-5.02-.89-2.5-1.44-4.92-.25-4.96a2.1912,2.1912,0,0,1,.76.11c2.16.73,3.94,4.51,3.94,4.51l-.53-8.61s-.88-.6-2.05-1.49c-.82-.62-1.78-1.38-2.69-2.18-.6-.52-1.17-1.06-1.67-1.57-1.43-1.51-2.18-2.89-.86-3.36a2.7317,2.7317,0,0,1,.56-.15c3.31-.63,6.8,3.34,6.8,3.34l-.35-7.18s-2.24-1.26-4.44-2.85c-2.71-1.94-5.35-4.36-3.64-5.49a2.1337,2.1337,0,0,1,.26-.14,3.62,3.62,0,0,1,2.41-.18,13.9413,13.9413,0,0,1,4.4,2.03,25.5891,25.5891,0,0,1,2.6,1.93s-.35-12.07,2.66-11.27c3.02.8,0,16.5,0,16.5v14.01a26.6417,26.6417,0,0,1,1.77-3.65c.98-1.66,2.26-3.21,3.47-2.91C57.7719,44.1491,56.0919,48.5791,54.3519,52.3991Z"/><path class="f" d="M66.882,62.3791h-10.53c-.05-.43-.1-.89-.13-1.37-.04-.58-.07-1.19-.07-1.81a14.5515,14.5515,0,0,1,1.11-6c.46-1.01,1.19-.09,1.92,1.43a52.1964,52.1964,0,0,1,2.34,6.47s6.65-3.73,7.89-2.22C69.932,59.5091,68.6019,60.9391,66.882,62.3791Z"/><path class="g" d="M40.062,35.3391l.38,4.32.3,3.51.36,4.1a12.2224,12.2224,0,0,1,1.31-2.53c.63-.89,1.42-1.49,2.19-.75.55.53.64,1.65.5,2.93a27.9693,27.9693,0,0,1-1.36,5.59c-.1.31-.17.49-.17.49s-.14,1.71-.34,4.36c-.11,1.43-.23,3.15-.36,5.02h-4.36c.07-1.65.12-2.66.12-2.66-.6-.85-1.44-1.84-2.33-2.86-1.18-1.34-2.45-2.75-3.41-3.98-.17-.22-.33-.44-.48-.64-.92-1.29-1.35-2.31-.72-2.73a1.3165,1.3165,0,0,1,.45-.21,3.1666,3.1666,0,0,1,2.6.86,18.3125,18.3125,0,0,1,3.29,3.64l-1.47-5.96-.95-3.86s-2.17-1.93-4.34-4.34c-2.39-2.63-4.8-5.83-4.43-7.7.12-.6.45-.85.92-.85a2.471,2.471,0,0,1,.94.23,16.3034,16.3034,0,0,1,3.62,2.51c1.92,1.66,3.61,3.46,3.61,3.46l-2.04-17.6s-7.24-5.82-5.16-10.34c1.25-2.71,7.2,6.69,7.2,6.69s.82-21.05,5.27-14.92c5.15,7.08-2.88,18.33-2.88,18.33l.75,7.89.27,2.85a15.8118,15.8118,0,0,1,2.14-3.03c1.4-1.57,3.43-3.16,5.89-3.22,2.32-.05.77,2.53-1.49,5.25-1.09,1.33-2.36,2.68-3.43,3.78C41.1019,34.3592,40.062,35.3391,40.062,35.3391Z"/><path class="g" d="M64.4919,43.5091l-3.48,6.3s5.45-2.27,8.01.37c2.27,2.33-7.56,4.08-9.84,4.45-.3.05-.47.07-.47.07l-2.56,4.5-1.71,3a15.4617,15.4617,0,0,1,1.78-1.19c1.36-.79,3.22-1.56,4.47-.89.65.35.31,1.21-.49,2.26h-9.88c.12-.65.19-1.02.19-1.02s-.33-8.94.63-12.95c.29-1.26.72-2.04,1.31-1.91a1.2866,1.2866,0,0,1,.46.21c1.2.81,1.44,3.63,1.44,5.69,0,1.3-.09,2.3-.09,2.3l6.17-12.58s4.2-15.43,7.25-14.82c3.06.61-2.56,11.29-2.56,11.29s8.39-2.21,10.28.98C77.2919,42.7691,64.4919,43.5091,64.4919,43.5091Z"/><path class="g" d="M28.2319,56.5392s.18,2.45.49,5.84h-5.31c-.09-.09-.18-.19-.28-.29-.58-.59-1.32-1.38-2.07-2.22-2.05-2.34-4.13-5.13-2.82-5.66,2.3-.93,5.98,2.74,5.98,2.74l-3.42-7.91s-1.87-.49-4.01-1.22a34.311,34.311,0,0,1-3.3-1.3,11.8177,11.8177,0,0,1-1.52-.81c-1.22-.77-1.8-1.57-.93-2.29a3.1744,3.1744,0,0,1,.67-.43c1.88-.98,4.41-.29,5.95.31a12.7589,12.7589,0,0,1,1.38.62l-.49-1.17-2.28-5.46a52.35,52.35,0,0,1-6.54-1.59,12.2676,12.2676,0,0,1-3.28-1.53c-.81-.59-1.15-1.26-.61-1.98,2.18-2.92,9.99,0,10.32.12-.15-.41-4.36-11.22-1.31-11.49,3.1-.27,5.6,15.52,5.6,15.52l2.58,7.14,2.19,6.04a27.1394,27.1394,0,0,1,.47-4.31,6.14,6.14,0,0,1,1.45-3.29,1.3613,1.3613,0,0,1,.77-.35c2.07-.21.98,9.87.5,13.6C28.312,56.0191,28.2319,56.5392,28.2319,56.5392Z"/><path class="h" d="M64.4919,43.5091l-3.48,6.3s5.45-2.27,8.01.37c2.27,2.33-7.56,4.08-9.84,4.45a52.1964,52.1964,0,0,1,2.34,6.47s6.65-3.73,7.89-2.22c.52.63-.81,2.06-2.53,3.5H13.752l-2.43-5.81s-12.51-8.58-11.23-12.68c.83-2.68,7.16,3.02,7.49,3.31-.13-.41-3.66-11.28-1.13-13.03-.81-.59-1.15-1.26-.61-1.98,2.18-2.92,9.99,0,10.32.12-.15-.41-4.36-11.22-1.31-11.49,3.1-.27,5.6,15.52,5.6,15.52l2.58,7.14a12.8567,12.8567,0,0,1,2.66,1.73,6.14,6.14,0,0,1,1.45-3.29l-.61-5.43s-10.16-9.36-6.57-17.35c2.57-5.73,6.51,7.29,7.8,11.95a2.471,2.471,0,0,1,.94.23c1.14-2.73,3.78-8.53,5.15-6.68,1.98,2.68,0,6.77-1.53,9.19,1.92,1.66,3.61,3.46,3.61,3.46l-2.04-17.6s-7.24-5.82-5.16-10.34c1.25-2.71,7.2,6.69,7.2,6.69s.82-21.05,5.27-14.92c5.15,7.08-2.88,18.33-2.88,18.33l.75,7.89a3.62,3.62,0,0,1,2.41-.18c1.4-1.57,3.43-3.16,5.89-3.22,2.32-.05.77,2.53-1.49,5.25a25.5891,25.5891,0,0,1,2.6,1.93s-.35-12.07,2.66-11.27c3.02.8,0,16.5,0,16.5v12.06c.29-1.26.72-2.04,1.31-1.91a1.2866,1.2866,0,0,1,.46.21c.98-1.66,2.26-3.21,3.47-2.91,1.39.35-.29,4.78-2.03,8.6,0,1.3-.09,2.3-.09,2.3l6.17-12.58s4.2-15.43,7.25-14.82c3.06.61-2.56,11.29-2.56,11.29s8.39-2.21,10.28.98C77.2919,42.7691,64.4919,43.5091,64.4919,43.5091Z"/></svg>