<svg xmlns="http://www.w3.org/2000/svg" xmlns:xlink="http://www.w3.org/1999/xlink" viewBox="0 0 78.0471 56.4"><defs><style>.a{fill:url(#a);}.b{fill:url(#b);}.c{fill:url(#c);}</style><linearGradient id="a" x1="17.8169" y1="68.2856" x2="17.8169" y2="7.7738" gradientUnits="userSpaceOnUse"><stop offset="0" stop-color="#202a6e"/><stop offset="1" stop-color="#202a6e" stop-opacity="0"/></linearGradient><linearGradient id="b" x1="43.8689" y1="59.2834" x2="43.8689" y2="6.2758" xlink:href="#a"/><linearGradient id="c" x1="68.7236" y1="59.0832" x2="68.7236" y2="11.596" xlink:href="#a"/></defs><path class="a" d="M35.63,31.49a12.1708,12.1708,0,0,1-1.49,5.6,12.3264,12.3264,0,0,1-4.31,4.44,25.34,25.34,0,0,1-4.86,2.25c-1.5.54-2.86.99-4.09,1.47a16.5124,16.5124,0,0,0-3.04,1.53,7.26,7.26,0,0,0-1.78,1.76,8.2392,8.2392,0,0,0-1.27,4.58,16.8727,16.8727,0,0,0,.3,3.28H0a29.5954,29.5954,0,0,1,1.07-6.06A20.7808,20.7808,0,0,1,7.83,39.81a19.39,19.39,0,0,1,5.42-3.03,28.0277,28.0277,0,0,1,5.19-1.23c1.59-.22,3.06-.36,4.37-.5a20.9783,20.9783,0,0,0,3.33-.62,5.0008,5.0008,0,0,0,2.16-1.2,5.5163,5.5163,0,0,0,1.38-2.53,19.3861,19.3861,0,0,0,.13-7.67A78.2315,78.2315,0,0,0,24.88,6.57c1.65,2.4,3.3,4.83,4.77,7.38a57.8713,57.8713,0,0,1,4.02,8.03A24.292,24.292,0,0,1,35.63,31.49Z"/><path class="b" d="M44.29,48.97a2.842,2.842,0,0,0-.33,2.05,3.1261,3.1261,0,0,0,.75,1.05,10.0855,10.0855,0,0,0,1.87,1.42,29.2192,29.2192,0,0,0,6.75,2.78l-.06.13H32.56a14.1471,14.1471,0,0,1-.55-6.48,15.0737,15.0737,0,0,1,2.98-6.82,30.9084,30.9084,0,0,1,3.85-4.15c2.49-2.29,4.79-4.19,6.7-6.28a19.6289,19.6289,0,0,0,4.31-6.91,18.8548,18.8548,0,0,0,.83-8.42,32.9118,32.9118,0,0,0-2.37-8.86A60.5665,60.5665,0,0,0,43.97,0a61.2619,61.2619,0,0,1,6.1,7.54,35.9432,35.9432,0,0,1,4.51,8.92,27.0028,27.0028,0,0,1,1.15,5.12,23.0253,23.0253,0,0,1-.01,5.44,26.56,26.56,0,0,1-3.68,10.31c-1.81,3.1-3.98,5.79-5.72,8.25A19.988,19.988,0,0,0,44.29,48.97Z"/><path class="c" d="M77.75,56.4H59.4a31.895,31.895,0,0,0,4.04-1.57,17.6357,17.6357,0,0,0,2.91-1.74,6.7943,6.7943,0,0,0,.6-.44c.15-.11.31-.3.19-.88-.22-1.14-1.59-3.13-2.72-5.44a19.7568,19.7568,0,0,1-1.39-3.8,16.1789,16.1789,0,0,1-.43-4.02,18.0219,18.0219,0,0,1,1.78-7.2,37.0578,37.0578,0,0,1,8.07-10.56,34.9554,34.9554,0,0,0-4.24,11.72,12.71,12.71,0,0,0,.36,5.42,9.9367,9.9367,0,0,0,2.55,4.07c.6.61,1.3,1.24,2.1,1.99a19.6362,19.6362,0,0,1,2.64,2.94,11.6052,11.6052,0,0,1,2.07,5.17A12.1352,12.1352,0,0,1,77.75,56.4Z"/></svg>