<svg xmlns="http://www.w3.org/2000/svg" xmlns:xlink="http://www.w3.org/1999/xlink" viewBox="0 0 40.4874 18.0229"><defs><style>.a{fill:url(#a);}</style><linearGradient id="a" x1="20.2437" y1="16.2411" x2="20.2437" y2="1.9345" gradientUnits="userSpaceOnUse"><stop offset="0" stop-color="#658adb"/><stop offset="1" stop-color="#c5bde5"/></linearGradient></defs><path class="a" d="M39.7247,8.1086A16.1481,16.1481,0,0,0,34.43,5.4819,28.8994,28.8994,0,0,0,27.9521,4.218L20.3391,0A7.9717,7.9717,0,0,1,21.9,4.3749a28.7435,28.7435,0,0,0-5.1094,1.107,14.58,14.58,0,0,0-5.7812,3.0807L0,3.5137,1.4024,9.6954,0,15.8771l11.0094-5.0489a13.0067,13.0067,0,0,0,4.6325,2.6845,5.9824,5.9824,0,0,1-1.357,2.3644l3.9507-1.57a29.3294,29.3294,0,0,0,12.0421.5825,5.546,5.546,0,0,1-.2435,3.1329l4.08-4.0269c.1044-.032.2116-.0539.3157-.0871a16.1461,16.1461,0,0,0,5.2949-2.6267A2.0319,2.0319,0,0,0,39.7247,8.1086Z"/></svg>