<svg xmlns="http://www.w3.org/2000/svg" viewBox="0 0 18.0225 18.0229"><defs><style>.a{fill:#030207;}.b{fill:#c5bde5;}</style></defs><circle class="a" cx="9.0112" cy="9.0116" r="8.5113"/><path class="b" d="M9.0112,18.0229a9.0115,9.0115,0,1,1,9.0113-9.0112A9.0215,9.0215,0,0,1,9.0112,18.0229ZM9.0112,1a8.0115,8.0115,0,1,0,8.0113,8.0117A8.0206,8.0206,0,0,0,9.0112,1Z"/><path class="b" d="M8.8188,11.4619l-1.4132.5025a.5743.5743,0,0,1-.7665-.5569L6.68,9.9082a.5749.5749,0,0,0-.1189-.366L5.6468,8.3535A.5743.5743,0,0,1,5.94,7.4524l1.4386-.4241A.5741.5741,0,0,0,7.69,6.8021L8.5374,5.565a.5743.5743,0,0,1,.9475,0l.8479,1.2371a.5741.5741,0,0,0,.3114.2262l1.4386.4241a.5743.5743,0,0,1,.2928.9011L11.461,9.5422a.5737.5737,0,0,0-.1189.366l.0412,1.4993a.5743.5743,0,0,1-.7666.5569l-1.4131-.5025A.5737.5737,0,0,0,8.8188,11.4619Z"/></svg>