<svg width="195" height="61" viewBox="0 0 195 61" fill="none" xmlns="http://www.w3.org/2000/svg">
<g clip-path="url(#clip0_3_297)">
<path d="M194.24 58.82C183.75 51.92 174.79 44.21 165.45 37.14C161.23 33.95 156.92 30.88 152.36 28.06C151.67 27.64 150.97 27.22 150.27 26.81C147.65 25.27 144.94 23.82 142.1 22.48C133.26 18.3 123.22 15.2 111.01 13.89C107.3 13.49 103.63 13.28 100.03 13.25C82.46 13.07 66.16 16.93 51.82 22.44C39.28 27.25 28.23 33.32 19.13 39.06" stroke="#EFFF9A" stroke-miterlimit="10"/>
<path d="M151.3 28.69C151.979 28.69 152.53 28.1393 152.53 27.46C152.53 26.7807 151.979 26.23 151.3 26.23C150.621 26.23 150.07 26.7807 150.07 27.46C150.07 28.1393 150.621 28.69 151.3 28.69Z" fill="#EFFF9A"/>
<path d="M83.86 29.83L111.32 1.67C102.71 0.59 93.48 0 83.86 0C37.55 0 0 13.5 0 30.16C0 46.82 37.55 60.32 83.86 60.32C130.17 60.32 167.72 46.82 167.72 30.16C167.72 26.55 165.95 23.09 162.72 19.88L83.86 29.83Z" fill="#EFFF9A"/>
</g>
<defs>
<clipPath id="clip0_3_297">
<rect width="194.52" height="60.32" fill="white"/>
</clipPath>
</defs>
</svg>
