<svg width="38" height="4" viewBox="0 0 38 4" fill="none" xmlns="http://www.w3.org/2000/svg">
<g clip-path="url(#clip0_1_53)">
<path d="M2 4C1.73 4 1.47 3.95 1.23 3.85C0.99 3.75 0.77 3.6 0.58 3.41C0.39 3.23 0.25 3.01 0.15 2.76C0.05 2.52 0 2.26 0 2C0 1.47 0.21 0.949999 0.58 0.579999C0.68 0.489999 0.78 0.409999 0.89 0.339999C1 0.259999 1.11 0.199999 1.23 0.159999C1.35 0.0999989 1.48 0.0599989 1.61 0.0399989C1.87 -0.0200011 2.13 -0.0200011 2.39 0.0399989C2.52 0.0599989 2.64 0.0999989 2.76 0.159999C2.88 0.199999 3 0.259999 3.11 0.339999C3.22 0.409999 3.32 0.489999 3.41 0.579999C3.78 0.949999 4 1.47 4 2C4 2.53 3.79 3.03 3.41 3.41C3.22 3.6 3.01 3.75 2.76 3.85C2.52 3.95 2.26 4 2 4Z" fill="#3A6B7C"/>
<path d="M25.18 2C25.18 0.89 26.07 0 27.18 0C28.28 0 29.18 0.89 29.18 2C29.18 3.1 28.28 4 27.18 4C26.07 4 25.18 3.1 25.18 2ZM16.79 2C16.79 0.89 17.68 0 18.79 0C19.89 0 20.78 0.89 20.78 2C20.78 3.1 19.89 4 18.79 4C17.68 4 16.79 3.1 16.79 2ZM8.39 2C8.39 0.89 9.29 0 10.39 0C11.5 0 12.39 0.89 12.39 2C12.39 3.1 11.5 4 10.39 4C9.29 4 8.39 3.1 8.39 2Z" fill="#3A6B7C"/>
<path d="M35.57 4C35.3 4 35.04 3.95 34.8 3.85C34.56 3.75 34.34 3.6 34.16 3.41C33.78 3.03 33.57 2.53 33.57 2C33.57 1.87 33.58 1.74 33.61 1.61C33.63 1.48 33.67 1.35 33.72 1.23C33.77 1.11 33.83 0.999999 33.91 0.889999C33.98 0.779999 34.06 0.679999 34.16 0.579999C34.25 0.489999 34.35 0.409999 34.46 0.339999C34.57 0.259999 34.68 0.199999 34.8 0.149999C34.92 0.0999989 35.05 0.0599989 35.18 0.0399989C35.44 -0.0200011 35.7 -0.0200011 35.96 0.0399989C36.09 0.0599989 36.21 0.0999989 36.33 0.149999C36.46 0.199999 36.57 0.259999 36.68 0.339999C36.79 0.409999 36.89 0.489999 36.98 0.579999C37.36 0.949999 37.57 1.47 37.57 2C37.57 2.53 37.36 3.03 36.98 3.41C36.8 3.6 36.58 3.75 36.33 3.85C36.09 3.95 35.83 4 35.57 4Z" fill="#3A6B7C"/>
</g>
<defs>
<clipPath id="clip0_1_53">
<rect width="37.57" height="4" fill="white"/>
</clipPath>
</defs>
</svg>
