<svg width="245" height="23" viewBox="0 0 245 23" fill="none" xmlns="http://www.w3.org/2000/svg">
<g clip-path="url(#clip0_3_376)">
<path d="M0.140015 21.11C32.39 11.93 67.8 3.29999 107.99 1.30999C108.8 1.26999 109.61 1.22999 110.43 1.19999C123.2 0.64999 136.46 0.78999 150.24 1.78999C161.66 2.61999 174.69 4.13999 189.14 6.85999C189.94 7.00999 190.73 7.16999 191.53 7.32999C192.99 7.60999 194.45 7.90999 195.93 8.21999C197.38 8.51999 198.84 8.82999 200.32 9.15999C214.01 12.2 228.79 16.35 244.59 21.98" stroke="#EFFF9A" stroke-miterlimit="10"/>
<path d="M198.09 11.14C199.338 11.14 200.35 10.1282 200.35 8.88C200.35 7.63183 199.338 6.62 198.09 6.62C196.842 6.62 195.83 7.63183 195.83 8.88C195.83 10.1282 196.842 11.14 198.09 11.14Z" fill="#EFFF9A"/>
<path d="M190.32 8.41999C190.999 8.41999 191.55 7.8693 191.55 7.18999C191.55 6.51068 190.999 5.95999 190.32 5.95999C189.641 5.95999 189.09 6.51068 189.09 7.18999C189.09 7.8693 189.641 8.41999 190.32 8.41999Z" fill="#EFFF9A"/>
<path d="M109.21 2.46C109.889 2.46 110.44 1.90931 110.44 1.23C110.44 0.55069 109.889 0 109.21 0C108.531 0 107.98 0.55069 107.98 1.23C107.98 1.90931 108.531 2.46 109.21 2.46Z" fill="#EFFF9A"/>
</g>
<defs>
<clipPath id="clip0_3_376">
<rect width="244.76" height="22.45" fill="white"/>
</clipPath>
</defs>
</svg>
