<svg width="115" height="87" viewBox="0 0 115 87" fill="none" xmlns="http://www.w3.org/2000/svg">
<g clip-path="url(#clip0_3_335)">
<path d="M105.68 24.26C104.56 22.92 104.27 21.08 104.92 19.47C105.04 19.17 105.14 18.86 105.25 18.53C107.33 11.49 101.64 3.58 92.57 0.899996C86.44 -0.910004 80.09 0.0499959 75.99 3.42C74.91 4.31 73.43 4.65 72.03 4.33C62.46 2.16 52.49 2.16 42.95 4.33C41.55 4.64 40.06 4.31 38.99 3.41C34.89 0.0499959 28.54 -0.920004 22.41 0.889996C18.06 2.18 14.34 4.69 11.95 7.97C9.5 11.32 8.72 15.07 9.74 18.52C9.83 18.85 9.94 19.17 10.07 19.47C10.72 21.08 10.42 22.91 9.3 24.25C3.3 31.46 0 39.62 0 47.25C0 56.09 3.49 64.22 10.09 70.76C20.25 80.82 37.08 86.36 57.49 86.36C77.9 86.36 94.74 80.82 104.89 70.76C111.49 64.22 114.98 56.09 114.98 47.25C114.99 39.62 111.69 31.46 105.68 24.26ZM27.56 7.89C30.76 7.89 33.35 10.48 33.35 13.68C33.35 16.88 30.76 19.47 27.56 19.47C24.36 19.47 21.77 16.88 21.77 13.68C21.77 10.48 24.37 7.89 27.56 7.89ZM48.96 16.45C49.86 16.45 50.6 17.18 50.6 18.09C50.6 20.56 53.76 22.64 57.49 22.64C61.22 22.64 64.38 20.56 64.38 18.09C64.38 17.19 65.11 16.45 66.02 16.45C66.92 16.45 67.66 17.18 67.66 18.09C67.66 22.41 63.1 25.92 57.49 25.92C51.88 25.92 47.32 22.41 47.32 18.09C47.33 17.18 48.06 16.45 48.96 16.45ZM87.42 7.89C90.62 7.89 93.21 10.48 93.21 13.68C93.21 16.88 90.62 19.47 87.42 19.47C84.22 19.47 81.63 16.88 81.63 13.68C81.63 10.48 84.23 7.89 87.42 7.89ZM57.5 84.59C37.56 84.59 21.17 79.23 11.35 69.5C11.22 69.37 11.1 69.22 10.97 69.09C14.5 52.67 33.96 40.11 57.5 40.11C81.03 40.11 100.49 52.68 104.03 69.09C103.9 69.22 103.79 69.37 103.65 69.5C93.83 79.23 77.44 84.59 57.5 84.59Z" fill="#EFFF9A"/>
</g>
<defs>
<clipPath id="clip0_3_335">
<rect width="114.99" height="86.37" fill="white"/>
</clipPath>
</defs>
</svg>
