<svg width="16" height="16" viewBox="0 0 16 16" fill="none" xmlns="http://www.w3.org/2000/svg">
<g clip-path="url(#clip0_3_364)">
<path d="M10.2 6C10.02 6 9.84 6 9.67 6.01C9.68 5.83 9.68 5.66 9.68 5.48C9.67 2.45 8.85 0 7.84 0C6.83 0 6 2.45 6 5.47C6 5.65 6 5.83 6.01 6C5.83 6 5.65 6 5.47 6C2.45 6 0 6.82 0 7.84C0 8.85 2.45 9.68 5.47 9.68C5.65 9.68 5.83 9.68 6 9.67C6 9.84 6 10.02 6 10.2C6 13.22 6.82 15.67 7.84 15.67C8.86 15.67 9.68 13.22 9.68 10.2C9.68 10.02 9.68 9.84 9.67 9.67C9.85 9.68 10.02 9.68 10.2 9.68C13.22 9.68 15.67 8.86 15.67 7.84C15.67 6.82 13.22 6 10.2 6Z" fill="#EFFF9A"/>
</g>
<defs>
<clipPath id="clip0_3_364">
<rect width="15.67" height="15.67" fill="white"/>
</clipPath>
</defs>
</svg>
