<svg width="118" height="18" viewBox="0 0 118 18" fill="none" xmlns="http://www.w3.org/2000/svg">
<g clip-path="url(#clip0_3_322)">
<path d="M0.220001 1.76C7.35 5.25 15.12 8.47 23.44 11.04C24.86 11.48 26.3 11.9 27.75 12.3C41.63 16.11 56.89 18.01 73.05 16.27C80.87 15.43 87.8 13.86 94.09 11.73C94.87 11.48 95.63 11.21 96.39 10.92C104.06 8.12 110.79 4.48 117.07 0.42" stroke="#EFFF9A" stroke-miterlimit="10"/>
<path d="M25.63 13.8C26.8782 13.8 27.89 12.7882 27.89 11.54C27.89 10.2918 26.8782 9.28 25.63 9.28C24.3818 9.28 23.37 10.2918 23.37 11.54C23.37 12.7882 24.3818 13.8 25.63 13.8Z" fill="#EFFF9A"/>
<path d="M95.2 12.47C95.8793 12.47 96.43 11.9193 96.43 11.24C96.43 10.5607 95.8793 10.01 95.2 10.01C94.5207 10.01 93.97 10.5607 93.97 11.24C93.97 11.9193 94.5207 12.47 95.2 12.47Z" fill="#EFFF9A"/>
</g>
<defs>
<clipPath id="clip0_3_322">
<rect width="117.34" height="17.42" fill="white"/>
</clipPath>
</defs>
</svg>
