<svg width="121" height="19" viewBox="0 0 121 19" fill="none" xmlns="http://www.w3.org/2000/svg">
<g clip-path="url(#clip0_3_302)">
<path d="M0.230011 0.440002C8.37001 4.67 17.44 8.61 27.27 11.66C28.69 12.1 30.13 12.52 31.58 12.92C45.46 16.73 60.72 18.63 76.88 16.89C84.7 16.05 91.63 14.48 97.92 12.35C98.7 12.1 99.46 11.83 100.22 11.54C107.81 8.77 114.47 5.18 120.7 1.17" stroke="#EFFF9A" stroke-miterlimit="10"/>
<path d="M29.47 14.42C30.7182 14.42 31.73 13.4082 31.73 12.16C31.73 10.9118 30.7182 9.90001 29.47 9.90001C28.2219 9.90001 27.21 10.9118 27.21 12.16C27.21 13.4082 28.2219 14.42 29.47 14.42Z" fill="#EFFF9A"/>
<path d="M99.04 13.09C99.7193 13.09 100.27 12.5393 100.27 11.86C100.27 11.1807 99.7193 10.63 99.04 10.63C98.3607 10.63 97.81 11.1807 97.81 11.86C97.81 12.5393 98.3607 13.09 99.04 13.09Z" fill="#EFFF9A"/>
</g>
<defs>
<clipPath id="clip0_3_302">
<rect width="120.97" height="18.04" fill="white"/>
</clipPath>
</defs>
</svg>
