<svg width="25" height="45" viewBox="0 0 25 45" fill="none" xmlns="http://www.w3.org/2000/svg">
<g clip-path="url(#clip0_1_67)">
<path d="M22.04 39.43L13.46 43.4C12.54 43.83 11.48 43.83 10.56 43.4L2 39.43C0.78 38.87 0 37.65 0 36.3V3.03C0 1.36 1.36 0 3.03 0H21.02C22.69 0 24.05 1.36 24.05 3.03V36.3C24.04 37.64 23.26 38.87 22.04 39.43Z" fill="#53A95C"/>
<path d="M12.08 8.6C11.65 8.76 11.44 9.24 11.6 9.67C12.84 12.91 12.97 16.13 12.62 19.41C11.44 16.91 8.4 16.17 8.45 16.17C8.38 20.7 10.85 22.04 12.18 22.44C11.94 23.79 11.66 25.15 11.37 26.54C11.03 28.18 10.69 29.83 10.42 31.5C9.03 27.17 4.73 25.92 4.61 25.92C3.25 33.15 8 34.97 9.98 35.42C9.81 38.38 10.08 41.36 11.22 44.34C11.38 44.77 11.86 44.98 12.29 44.82C12.72 44.66 12.93 44.18 12.77 43.75C10.87 38.81 11.57 33.91 12.61 28.79C14.71 28.33 19.94 26.49 21.21 19.3C21.2 19.3 16.26 20.56 13.4 24.95C13.96 22.14 14.45 19.3 14.45 16.43C14.45 16.17 14.44 15.9 14.44 15.64C15.93 15.24 18.8 13.88 17.55 9.38C17.44 9.38 15.17 10.11 14.13 12.58C13.92 11.42 13.61 10.25 13.17 9.09C12.99 8.65 12.51 8.43 12.08 8.6Z" fill="#EFFF9A"/>
</g>
<defs>
<clipPath id="clip0_1_67">
<rect width="24.04" height="44.86" fill="white"/>
</clipPath>
</defs>
</svg>
