<svg width="38" height="4" viewBox="0 0 38 4" fill="none" xmlns="http://www.w3.org/2000/svg">
<g clip-path="url(#clip0_1_45)">
<path d="M2 4.01C1.47 4.01 0.97 3.8 0.59 3.42C0.49 3.33 0.41 3.22 0.34 3.12C0.26 3.01 0.2 2.89 0.15 2.77C0.1 2.65 0.06 2.53 0.04 2.4C0.01 2.27 0 2.14 0 2.01C0 1.88 0.01 1.74 0.04 1.62C0.07 1.49 0.1 1.36 0.15 1.24C0.2 1.12 0.27 1 0.34 0.89C0.41 0.79 0.5 0.68 0.59 0.59C1.32 -0.15 2.66 -0.15 3.41 0.59C3.51 0.68 3.59 0.79 3.66 0.89C3.74 1 3.8 1.12 3.85 1.24C3.9 1.36 3.94 1.49 3.96 1.62C3.99 1.74 4 1.88 4 2.01C4 2.14 3.99 2.27 3.96 2.4C3.94 2.53 3.9 2.65 3.85 2.77C3.8 2.89 3.74 3.01 3.67 3.12C3.59 3.22 3.51 3.33 3.41 3.42C3.32 3.51 3.22 3.6 3.11 3.67C3 3.74 2.89 3.8 2.77 3.85C2.65 3.9 2.52 3.94 2.39 3.97C2.26 3.99 2.13 4.01 2 4.01Z" fill="#88D872"/>
<path d="M25.18 2C25.18 0.9 26.07 0 27.18 0C28.28 0 29.18 0.9 29.18 2C29.18 3.11 28.28 4 27.18 4C26.07 4 25.18 3.11 25.18 2ZM16.78 2C16.78 0.9 17.68 0 18.78 0C19.89 0 20.78 0.9 20.78 2C20.78 3.11 19.89 4 18.78 4C17.68 4 16.78 3.11 16.78 2ZM8.4 2C8.4 0.9 9.29 0 10.4 0C11.5 0 12.4 0.9 12.4 2C12.4 3.11 11.5 4 10.4 4C9.29 4 8.4 3.11 8.4 2Z" fill="#88D872"/>
<path d="M35.57 4.01C35.44 4.01 35.31 3.99 35.18 3.97C35.05 3.94 34.93 3.9 34.81 3.85C34.69 3.8 34.57 3.74 34.46 3.67C34.35 3.6 34.25 3.51 34.16 3.42C34.06 3.33 33.98 3.22 33.91 3.12C33.83 3.01 33.77 2.89 33.72 2.77C33.67 2.65 33.63 2.53 33.61 2.4C33.58 2.27 33.57 2.14 33.57 2.01C33.57 1.88 33.58 1.74 33.61 1.62C33.63 1.49 33.67 1.36 33.72 1.24C33.77 1.12 33.84 1 33.91 0.890001C33.98 0.790001 34.07 0.680001 34.16 0.590001C34.62 0.130001 35.31 -0.0899988 35.96 0.0500012C36.09 0.0700012 36.22 0.110001 36.34 0.160001C36.46 0.210001 36.57 0.270001 36.68 0.340001C36.79 0.420001 36.89 0.500001 36.99 0.590001C37.08 0.680001 37.16 0.790001 37.24 0.890001C37.31 1 37.37 1.12 37.42 1.24C37.47 1.36 37.51 1.49 37.53 1.62C37.56 1.74 37.57 1.88 37.57 2.01C37.57 2.14 37.56 2.27 37.53 2.4C37.51 2.53 37.47 2.65 37.42 2.77C37.37 2.89 37.31 3.01 37.24 3.12C37.16 3.22 37.08 3.33 36.99 3.42C36.8 3.61 36.58 3.75 36.34 3.85C36.09 3.96 35.84 4.01 35.57 4.01Z" fill="#88D872"/>
</g>
<defs>
<clipPath id="clip0_1_45">
<rect width="37.57" height="4.01" fill="white"/>
</clipPath>
</defs>
</svg>
