<svg width="432" height="99" viewBox="0 0 432 99" fill="none" xmlns="http://www.w3.org/2000/svg">
<g clip-path="url(#clip0_3_345)">
<path d="M0.330017 0.380005C33.33 29.24 108.52 84.84 218.92 96.27C252.6 99.75 283.74 98.52 311.6 94.68C313.1 94.48 314.59 94.27 316.06 94.05C317.9 93.77 319.72 93.49 321.52 93.19C322.33 93.06 323.14 92.92 323.94 92.79C344.61 89.27 363.27 84.4 379.58 79.13C401.01 72.21 418.4 64.61 430.94 58.51" stroke="#EFFF9A" stroke-miterlimit="10"/>
<path d="M313.82 96.58C315.068 96.58 316.08 95.5682 316.08 94.32C316.08 93.0718 315.068 92.06 313.82 92.06C312.572 92.06 311.56 93.0718 311.56 94.32C311.56 95.5682 312.572 96.58 313.82 96.58Z" fill="#EFFF9A"/>
<path d="M322.72 94.19C323.399 94.19 323.95 93.6393 323.95 92.96C323.95 92.2807 323.399 91.73 322.72 91.73C322.041 91.73 321.49 92.2807 321.49 92.96C321.49 93.6393 322.041 94.19 322.72 94.19Z" fill="#EFFF9A"/>
</g>
<defs>
<clipPath id="clip0_3_345">
<rect width="431.16" height="98.82" fill="white"/>
</clipPath>
</defs>
</svg>
