<svg width="25" height="45" viewBox="0 0 25 45" fill="none" xmlns="http://www.w3.org/2000/svg">
<g clip-path="url(#clip0_1_61)">
<path d="M22.04 39.43L13.46 43.4C12.54 43.83 11.48 43.83 10.56 43.4L2 39.43C0.78 38.87 0 37.65 0 36.3V3.03C0 1.36 1.36 0 3.03 0H21.02C22.69 0 24.05 1.36 24.05 3.03V36.3C24.04 37.64 23.26 38.87 22.04 39.43Z" fill="#53A95C"/>
<path d="M20.82 29.9C19.62 28.7 18.17 28.21 16.82 28.06C18.17 27.91 19.63 27.42 20.82 26.22C20.82 26.22 20.97 26.07 21.15 25.81C21.93 24.65 21.43 23.05 20.12 22.54C18.86 22.05 17.97 21.25 17.53 20.08C17.01 18.71 15.36 18.15 14.17 19.01C13.97 19.15 13.86 19.27 13.86 19.27C12.66 20.47 12.17 21.92 12.02 23.27C11.87 21.92 11.38 20.46 10.18 19.26C10.18 19.26 10.03 19.11 9.77 18.93C8.61 18.15 7.01 18.65 6.5 19.96C6.01 21.22 5.21 22.11 4.03 22.55C2.66 23.07 2.1 24.72 2.96 25.91C3.1 26.11 3.22 26.22 3.22 26.22C4.42 27.42 5.87 27.91 7.22 28.06C5.87 28.21 4.41 28.7 3.22 29.9C3.22 29.9 3.07 30.05 2.89 30.31C2.11 31.47 2.61 33.07 3.92 33.58C5.18 34.07 6.07 34.87 6.51 36.04C7.03 37.41 8.68 37.97 9.87 37.11C10.07 36.97 10.18 36.85 10.18 36.85C11.38 35.65 11.87 34.2 12.02 32.85C12.17 34.2 12.66 35.66 13.86 36.85C13.86 36.85 14.01 37 14.27 37.18C15.43 37.96 17.03 37.46 17.54 36.15C18.03 34.89 18.83 34 20.01 33.56C21.38 33.04 21.94 31.39 21.08 30.2C20.94 30.01 20.82 29.9 20.82 29.9ZM12.02 31.55C10.09 31.55 8.52 29.98 8.52 28.05C8.52 26.12 10.09 24.55 12.02 24.55C13.95 24.55 15.52 26.12 15.52 28.05C15.52 29.98 13.95 31.55 12.02 31.55Z" fill="#EFFF9A"/>
</g>
<defs>
<clipPath id="clip0_1_61">
<rect width="24.04" height="44.86" fill="white"/>
</clipPath>
</defs>
</svg>
