<svg width="12" height="12" viewBox="0 0 12 12" fill="none" xmlns="http://www.w3.org/2000/svg">
<g clip-path="url(#clip0_1_18)">
<path d="M8.72 6.12C8.6 6 8.47 5.87 8.34 5.75C8.47 5.63 8.6 5.51 8.72 5.38C10.86 3.24 12.01 0.93 11.29 0.21C10.57 -0.51 8.26 0.65 6.12 2.79C6 2.91 5.87 3.04 5.75 3.17C5.63 3.04 5.51 2.91 5.38 2.79C3.25 0.65 0.930001 -0.5 0.210001 0.21C-0.499999 0.93 0.650001 3.25 2.79 5.38C2.92 5.51 3.04 5.63 3.17 5.75C3.04 5.87 2.91 6 2.79 6.12C0.650001 8.26 -0.499999 10.57 0.220001 11.29C0.940001 12.01 3.25 10.86 5.39 8.72C5.51 8.6 5.63 8.47 5.75 8.34C5.87 8.47 6 8.6 6.12 8.72C8.26 10.86 10.57 12.01 11.29 11.29C12.01 10.58 10.86 8.26 8.72 6.12Z" fill="#53A95C"/>
</g>
<defs>
<clipPath id="clip0_1_18">
<rect width="11.51" height="11.51" fill="white"/>
</clipPath>
</defs>
</svg>
