<svg width="34" height="72" viewBox="0 0 34 72" fill="none" xmlns="http://www.w3.org/2000/svg">
<g clip-path="url(#clip0_1_253)">
<path d="M15.21 71.53C14.37 71.21 13.95 70.26 14.27 69.42C16.72 63.03 16.97 56.68 16.27 50.21C13.93 55.14 7.95 56.6 8.05 56.6C7.92 47.67 12.79 45.01 15.41 44.24C14.94 41.58 14.38 38.89 13.81 36.16C13.14 32.93 12.46 29.66 11.93 26.38C9.2 34.91 0.720001 37.38 0.480001 37.38C-2.2 23.11 7.18 19.52 11.06 18.65C10.73 12.82 11.25 6.94 13.51 1.05C13.83 0.21 14.78 -0.21 15.62 0.11C16.46 0.43 16.88 1.38 16.56 2.22C12.82 11.97 14.2 21.63 16.24 31.73C20.38 32.63 30.71 36.26 33.2 50.45C33.18 50.45 23.43 47.96 17.8 39.3C18.91 44.83 19.87 50.45 19.87 56.1C19.87 56.62 19.86 57.14 19.84 57.66C22.78 58.46 28.45 61.14 25.98 70C25.77 70 21.29 68.56 19.22 63.69C18.81 65.98 18.2 68.28 17.32 70.58C16.99 71.43 16.05 71.85 15.21 71.53Z" fill="#3A6B7C"/>
</g>
<defs>
<clipPath id="clip0_1_253">
<rect width="33.2" height="71.64" fill="white"/>
</clipPath>
</defs>
</svg>
