<svg width="44" height="21" viewBox="0 0 44 21" fill="none" xmlns="http://www.w3.org/2000/svg">
<g clip-path="url(#clip0_1_225)">
<path d="M42.83 9.2C28.89 3.85 14.94 15.02 1 9.66" stroke="#EFFF9A" stroke-width="2" stroke-miterlimit="10" stroke-linecap="round"/>
<path d="M12.96 20.31C12.96 20.29 15.34 10.89 24.59 8.88C24.59 8.72 23.98 18.38 12.96 20.31Z" fill="#EFFF9A"/>
<path d="M20.96 0.289997C20.96 0.479997 23.34 8.71 32.59 7.75C32.59 7.9 31.97 -1.78 20.96 0.289997Z" fill="#EFFF9A"/>
<path d="M9.2 4.92999C9.2 4.84999 10.79 11.44 16.96 10.41C16.96 10.25 16.55 4.81999 9.2 4.92999Z" fill="#EFFF9A"/>
<path d="M1 15.89C1 15.72 2.59 10.8 8.76 11.15C8.76 10.85 8.35 17.94 1 15.89Z" fill="#EFFF9A"/>
</g>
<defs>
<clipPath id="clip0_1_225">
<rect width="43.83" height="20.31" fill="white"/>
</clipPath>
</defs>
</svg>
