<svg width="51" height="9" viewBox="0 0 51 9" fill="none" xmlns="http://www.w3.org/2000/svg">
<g clip-path="url(#clip0_1_22)">
<path d="M7.4 6.72H0.67C0.3 6.72 0 7.03 0 7.4C0 7.77 0.3 8.07 0.67 8.07H7.4C7.77 8.07 8.07 7.77 8.07 7.4C8.07 7.03 7.77 6.72 7.4 6.72Z" fill="#C4E271"/>
<path d="M47.68 4.03L50.57 1.14C50.83 0.88 50.83 0.45 50.57 0.19C50.31 -0.07 49.88 -0.07 49.62 0.19L46.73 3.08L43.84 0.2C43.58 -0.06 43.15 -0.06 42.89 0.2C42.63 0.46 42.63 0.89 42.89 1.15L45.78 4.04L42.9 6.92C42.64 7.18 42.64 7.61 42.9 7.87C43.03 8 43.2 8.07 43.37 8.07C43.54 8.07 43.71 8 43.84 7.87L46.73 4.98L49.62 7.87C49.75 8 49.92 8.07 50.09 8.07C50.26 8.07 50.43 8 50.56 7.87C50.82 7.61 50.82 7.18 50.56 6.92L47.68 4.03Z" fill="#C4E271"/>
<path d="M28.74 0H22.02C21.65 0 21.35 0.3 21.35 0.67V7.4C21.35 7.77 21.65 8.07 22.02 8.07H28.74C29.11 8.07 29.41 7.77 29.41 7.4V0.67C29.42 0.3 29.12 0 28.74 0ZM22.69 6.72V2.85H28.07V6.73H22.69V6.72Z" fill="#C4E271"/>
</g>
<defs>
<clipPath id="clip0_1_22">
<rect width="50.77" height="8.07" fill="white"/>
</clipPath>
</defs>
</svg>
