<svg width="24" height="24" viewBox="0 0 24 24" fill="none" xmlns="http://www.w3.org/2000/svg">
<g clip-path="url(#clip0_1_96)">
<path d="M11.8 21.88C17.367 21.88 21.88 17.367 21.88 11.8C21.88 6.23297 17.367 1.72 11.8 1.72C6.23297 1.72 1.72 6.23297 1.72 11.8C1.72 17.367 6.23297 21.88 11.8 21.88Z" fill="url(#paint0_linear_1_96)"/>
<path d="M20.25 16.17C20.25 17.45 19.74 18.63 18.78 19.59C17.38 20.98 15 21.88 11.8 21.88C8.6 21.88 6.22 20.98 4.82 19.59C3.86 18.64 3.35 17.46 3.35 16.17C3.35 15.03 3.85 13.85 4.71 12.82C4.91 12.58 4.96 12.26 4.85 11.97C4.83 11.93 4.82 11.88 4.81 11.84C4.52 10.86 5.33 9.75 6.61 9.37C7.51 9.1 8.41 9.26 8.96 9.72C9.15 9.9 9.41 9.95 9.66 9.9C10.34 9.74 11.06 9.66 11.8 9.66C12.54 9.66 13.26 9.75 13.94 9.9C14.19 9.96 14.45 9.9 14.64 9.74C15.2 9.28 16.1 9.12 17 9.38C18.29 9.76 19.09 10.86 18.8 11.85C18.79 11.89 18.77 11.94 18.76 11.98C18.64 12.27 18.7 12.59 18.89 12.83C19.75 13.86 20.25 15.03 20.25 16.17Z" fill="#EFFF9A"/>
<path d="M7.33 12.02C7.80497 12.02 8.19 11.635 8.19 11.16C8.19 10.685 7.80497 10.3 7.33 10.3C6.85504 10.3 6.47 10.685 6.47 11.16C6.47 11.635 6.85504 12.02 7.33 12.02Z" fill="#007E8C"/>
<path d="M16.27 12.02C16.745 12.02 17.13 11.635 17.13 11.16C17.13 10.685 16.745 10.3 16.27 10.3C15.795 10.3 15.41 10.685 15.41 11.16C15.41 11.635 15.795 12.02 16.27 12.02Z" fill="#007E8C"/>
<path d="M13.38 11.86C13.38 12.15 13.21 12.41 12.94 12.6V12.61C12.65 12.8 12.25 12.93 11.8 12.93C11.35 12.93 10.94 12.8 10.66 12.61V12.6C10.39 12.41 10.22 12.15 10.22 11.86C10.22 11.27 10.92 10.79 11.8 10.79C12.67 10.79 13.38 11.27 13.38 11.86Z" fill="#007E8C"/>
<path d="M18.78 19.59C17.38 20.98 15 21.88 11.8 21.88C8.6 21.88 6.22 20.98 4.82 19.59C5.25 17.06 8.21 15.11 11.8 15.11C15.39 15.11 18.35 17.06 18.78 19.59Z" fill="#FEFFCC"/>
<path d="M11.8 1.72C17.37 1.72 21.88 6.23 21.88 11.8C21.88 17.37 17.37 21.88 11.8 21.88C6.23 21.88 1.72 17.37 1.72 11.8C1.72 6.23 6.23 1.72 11.8 1.72ZM11.8 0C5.29 0 0 5.29 0 11.8C0 18.31 5.29 23.6 11.8 23.6C18.31 23.6 23.6 18.31 23.6 11.8C23.6 5.29 18.31 0 11.8 0Z" fill="#EFFF9A"/>
<path d="M12.94 12.6V12.61C12.65 12.8 12.25 12.93 11.8 12.93C11.35 12.93 10.94 12.8 10.66 12.61V12.6C10.67 12.28 11.18 12.03 11.8 12.03C12.42 12.03 12.93 12.28 12.94 12.6Z" fill="#CC6368"/>
</g>
<defs>
<linearGradient id="paint0_linear_1_96" x1="1.7221" y1="11.8013" x2="21.8805" y2="11.8013" gradientUnits="userSpaceOnUse">
<stop offset="4.33488e-07" stop-color="#5EC471"/>
<stop offset="1" stop-color="#48AF7D"/>
</linearGradient>
<clipPath id="clip0_1_96">
<rect width="23.6" height="23.6" fill="white"/>
</clipPath>
</defs>
</svg>
