<svg width="169" height="102" viewBox="0 0 169 102" fill="none" xmlns="http://www.w3.org/2000/svg">
<g clip-path="url(#clip0_3_366)">
<path d="M97.58 60.47C91.19 54.08 83.45 51.45 76.23 50.65C83.45 49.85 91.2 47.22 97.58 40.83C97.58 40.83 98.4 40.01 99.33 38.62C103.49 32.42 100.8 23.9 93.84 21.2C87.12 18.59 82.4 14.31 80.03 8.05999C77.26 0.749995 68.47 -2.24001 62.13 2.33999C61.07 3.09999 60.46 3.71999 60.46 3.71999C54.07 10.11 51.44 17.85 50.64 25.07C49.84 17.85 47.21 10.1 40.82 3.71999C40.82 3.71999 40 2.89999 38.61 1.96999C32.41 -2.19001 23.89 0.499994 21.19 7.45999C18.58 14.18 14.3 18.9 8.05002 21.27C0.740016 24.04 -2.24998 32.83 2.33001 39.17C3.09001 40.23 3.71002 40.84 3.71002 40.84C10.1 47.23 17.84 49.86 25.06 50.66C17.84 51.46 10.09 54.09 3.71002 60.48C3.71002 60.48 2.89002 61.3 1.96002 62.69C-2.19998 68.89 0.490015 77.41 7.45002 80.11C14.17 82.72 18.89 87 21.26 93.25C24.03 100.56 32.82 103.55 39.16 98.97C40.22 98.21 40.83 97.59 40.83 97.59C47.22 91.2 49.85 83.46 50.65 76.24C51.45 83.46 54.08 91.21 60.47 97.59C60.47 97.59 61.29 98.41 62.68 99.34C68.88 103.5 77.4 100.81 80.1 93.85C82.71 87.13 86.99 82.41 93.24 80.04C100.55 77.27 103.54 68.48 98.96 62.14C98.19 61.08 97.58 60.47 97.58 60.47Z" fill="#EFFF9A"/>
<path d="M168.52 69.4C154.35 59.69 142.84 48.72 128.91 40.13C128.22 39.71 127.52 39.29 126.82 38.88C119.14 34.37 110.68 30.61 100.62 28.2C96.55 27.22 92.21 26.46 87.56 25.96C65.8 23.62 45.67 27.86 28.37 34.51" stroke="#EFFF9A" stroke-miterlimit="10"/>
<path d="M127.84 40.76C128.519 40.76 129.07 40.2093 129.07 39.53C129.07 38.8507 128.519 38.3 127.84 38.3C127.161 38.3 126.61 38.8507 126.61 39.53C126.61 40.2093 127.161 40.76 127.84 40.76Z" fill="#EFFF9A"/>
</g>
<defs>
<clipPath id="clip0_3_366">
<rect width="168.8" height="101.31" fill="white"/>
</clipPath>
</defs>
</svg>
