<svg width="102" height="102" viewBox="0 0 102 102" fill="none" xmlns="http://www.w3.org/2000/svg">
<g clip-path="url(#clip0_3_333)">
<path d="M97.58 60.47C91.19 54.08 83.45 51.45 76.23 50.65C83.45 49.85 91.2 47.22 97.58 40.83C97.58 40.83 98.4 40.01 99.33 38.62C103.49 32.42 100.8 23.9 93.84 21.2C87.12 18.59 82.4 14.31 80.03 8.06C77.26 0.750001 68.47 -2.24 62.13 2.34C61.07 3.1 60.46 3.72 60.46 3.72C54.07 10.11 51.44 17.85 50.64 25.07C49.84 17.85 47.21 10.1 40.82 3.72C40.82 3.72 40 2.9 38.61 1.97C32.41 -2.19 23.89 0.5 21.19 7.46C18.58 14.18 14.3 18.9 8.04998 21.27C0.739985 24.04 -2.25002 32.83 2.32998 39.17C3.08998 40.23 3.70998 40.84 3.70998 40.84C10.1 47.23 17.84 49.86 25.06 50.66C17.84 51.46 10.09 54.09 3.70998 60.48C3.70998 60.48 2.88998 61.3 1.95998 62.69C-2.20002 68.89 0.489985 77.41 7.44998 80.11C14.17 82.72 18.89 87 21.26 93.25C24.03 100.56 32.82 103.55 39.16 98.97C40.22 98.21 40.83 97.59 40.83 97.59C47.22 91.2 49.85 83.46 50.65 76.24C51.45 83.46 54.08 91.21 60.47 97.59C60.47 97.59 61.29 98.41 62.68 99.34C68.88 103.5 77.4 100.81 80.1 93.85C82.71 87.13 86.99 82.41 93.24 80.04C100.55 77.27 103.54 68.48 98.96 62.14C98.19 61.08 97.58 60.47 97.58 60.47Z" fill="#EFFF9A"/>
</g>
<defs>
<clipPath id="clip0_3_333">
<rect width="101.31" height="101.31" fill="white"/>
</clipPath>
</defs>
</svg>
