<svg width="38" height="4" viewBox="0 0 38 4" fill="none" xmlns="http://www.w3.org/2000/svg">
<g clip-path="url(#clip0_1_37)">
<path d="M2 4.01C1.74 4.01 1.48 3.95 1.24 3.85C0.99 3.75 0.78 3.61 0.59 3.42C0.21 3.04 0 2.54 0 2.01C0 1.48 0.21 0.959999 0.59 0.589999C1.33 -0.150001 2.67 -0.160001 3.41 0.589999C3.51 0.679999 3.59 0.779999 3.66 0.889999C3.74 0.999999 3.8 1.12 3.85 1.24C3.9 1.36 3.94 1.49 3.96 1.61C3.99 1.74 4 1.88 4 2.01C4 2.54 3.79 3.04 3.41 3.42C3.04 3.8 2.53 4.01 2 4.01Z" fill="#5EC471"/>
<path d="M25.18 2.01C25.18 0.9 26.07 0.0100002 27.18 0.0100002C28.28 0.0100002 29.18 0.9 29.18 2.01C29.18 3.11 28.28 4.01 27.18 4.01C26.07 4.01 25.18 3.11 25.18 2.01ZM16.79 2.01C16.79 0.9 17.68 0.0100002 18.79 0.0100002C19.89 0.0100002 20.79 0.9 20.79 2.01C20.79 3.11 19.89 4.01 18.79 4.01C17.68 4.01 16.79 3.11 16.79 2.01ZM8.39 2.01C8.39 0.9 9.29 0.0100002 10.39 0.0100002C11.5 0.0100002 12.4 0.9 12.4 2.01C12.4 3.11 11.5 4.01 10.39 4.01C9.29 4.01 8.39 3.11 8.39 2.01Z" fill="#5EC471"/>
<path d="M35.57 4.01C35.3 4.01 35.05 3.95 34.8 3.85C34.56 3.75 34.34 3.61 34.16 3.42C33.78 3.04 33.57 2.54 33.57 2.01C33.57 1.48 33.78 0.96 34.16 0.59C34.62 0.13 35.32 -0.0900004 35.96 0.0399996C36.09 0.0699996 36.22 0.11 36.34 0.16C36.46 0.21 36.57 0.27 36.68 0.34C36.79 0.41 36.89 0.5 36.99 0.59C37.36 0.96 37.57 1.48 37.57 2.01C37.57 2.54 37.36 3.04 36.99 3.42C36.8 3.61 36.58 3.75 36.34 3.85C36.1 3.95 35.84 4.01 35.57 4.01Z" fill="#5EC471"/>
</g>
<defs>
<clipPath id="clip0_1_37">
<rect width="37.57" height="4.01" fill="white"/>
</clipPath>
</defs>
</svg>
