<svg width="24" height="24" viewBox="0 0 24 24" fill="none" xmlns="http://www.w3.org/2000/svg">
<g clip-path="url(#clip0_1_109)">
<path d="M11.8 21.88C17.367 21.88 21.88 17.367 21.88 11.8C21.88 6.23297 17.367 1.72 11.8 1.72C6.23297 1.72 1.72 6.23297 1.72 11.8C1.72 17.367 6.23297 21.88 11.8 21.88Z" fill="url(#paint0_linear_1_109)"/>
<path d="M20.25 16.17C20.25 17.45 19.74 18.63 18.78 19.59C17.38 20.98 15 21.88 11.8 21.88C8.6 21.88 6.22 20.98 4.82 19.59C3.86 18.64 3.35 17.46 3.35 16.17C3.35 15.03 3.85 13.85 4.71 12.82C4.91 12.58 4.96 12.26 4.85 11.97C4.83 11.93 4.82 11.88 4.81 11.84C4.52 10.86 5.33 9.75 6.61 9.37C7.51 9.1 8.41 9.26 8.96 9.72C9.15 9.9 9.41 9.95 9.66 9.9C10.34 9.74 11.06 9.66 11.8 9.66C12.54 9.66 13.26 9.75 13.94 9.9C14.19 9.96 14.45 9.9 14.64 9.74C15.2 9.28 16.1 9.12 17 9.38C18.29 9.76 19.09 10.86 18.8 11.85C18.79 11.89 18.77 11.94 18.76 11.98C18.64 12.27 18.7 12.59 18.89 12.83C19.75 13.86 20.25 15.03 20.25 16.17Z" fill="#EFFF9A"/>
<path d="M10.53 11.82C10.53 12.33 11.1 12.74 11.8 12.74C12.5 12.74 13.07 12.33 13.07 11.82" stroke="#007E8C" stroke-width="0.4892" stroke-miterlimit="10" stroke-linecap="round"/>
<path d="M6.1 11.67C6.5 11.13 7.25 10.71 8.18 10.74" stroke="#007E8C" stroke-width="0.4892" stroke-miterlimit="10" stroke-linecap="round"/>
<path d="M17.5 11.67C17.1 11.13 16.35 10.71 15.42 10.74" stroke="#007E8C" stroke-width="0.4892" stroke-miterlimit="10" stroke-linecap="round"/>
<path d="M18.78 19.59C17.38 20.98 15 21.88 11.8 21.88C8.6 21.88 6.22 20.98 4.82 19.59C5.25 17.06 8.21 15.11 11.8 15.11C15.39 15.11 18.35 17.06 18.78 19.59Z" fill="#FEFFCC"/>
<path d="M11.8 1.72C17.37 1.72 21.88 6.23 21.88 11.8C21.88 17.37 17.37 21.88 11.8 21.88C6.23 21.88 1.72 17.37 1.72 11.8C1.72 6.23 6.23 1.72 11.8 1.72ZM11.8 0C5.29 0 0 5.29 0 11.8C0 18.31 5.29 23.6 11.8 23.6C18.31 23.6 23.6 18.31 23.6 11.8C23.6 5.29 18.31 0 11.8 0Z" fill="#EFFF9A"/>
</g>
<defs>
<linearGradient id="paint0_linear_1_109" x1="1.7221" y1="11.8013" x2="21.8805" y2="11.8013" gradientUnits="userSpaceOnUse">
<stop offset="4.33488e-07" stop-color="#5EC471"/>
<stop offset="1" stop-color="#48AF7D"/>
</linearGradient>
<clipPath id="clip0_1_109">
<rect width="23.6" height="23.6" fill="white"/>
</clipPath>
</defs>
</svg>
