<svg width="181" height="108" viewBox="0 0 181 108" fill="none" xmlns="http://www.w3.org/2000/svg">
<g clip-path="url(#clip0_3_355)">
<path d="M83.86 29.83L56.4 1.66C65.01 0.59 74.24 0 83.86 0C130.17 0 167.72 13.5 167.72 30.16C167.72 46.82 130.17 60.32 83.86 60.32C37.55 60.32 0 46.82 0 30.16C0 26.55 1.77 23.09 5 19.88L83.86 29.83Z" fill="#EFFF9A"/>
<path d="M96.26 37.24C100.61 40.16 118.01 52.58 123.06 75.82C125.91 88.95 123.6 99.97 121.88 105.86" stroke="#EFFF9A" stroke-width="9" stroke-miterlimit="10"/>
<path d="M86.65 105.86C98.8 102.13 111.33 97.94 124.2 93.29C131.12 90.79 138.14 88.15 145.27 85.37C146.02 85.08 146.77 84.78 147.52 84.49C158.35 80.23 169.38 75.67 180.74 70.71" stroke="#EFFF9A" stroke-miterlimit="10"/>
<path d="M146.46 86.32C147.139 86.32 147.69 85.7693 147.69 85.09C147.69 84.4107 147.139 83.86 146.46 83.86C145.781 83.86 145.23 84.4107 145.23 85.09C145.23 85.7693 145.781 86.32 146.46 86.32Z" fill="#EFFF9A"/>
</g>
<defs>
<clipPath id="clip0_3_355">
<rect width="180.94" height="107.12" fill="white"/>
</clipPath>
</defs>
</svg>
