<svg width="168" height="108" viewBox="0 0 168 108" fill="none" xmlns="http://www.w3.org/2000/svg">
<g clip-path="url(#clip0_3_313)">
<path d="M167.71 30.16C167.71 39.05 157.03 47.04 140.03 52.56C133 54.84 124.89 56.7 116 58.03C106.1 59.51 95.24 60.33 83.85 60.33C37.54 60.33 0 46.82 0 30.16C0 26.55 1.76 23.09 5 19.88L83.85 29.83L69.91 15.53L56.4 1.67C59.27 1.31 62.2 1 65.2 0.76H65.21C71.2 0.26 77.44 0 83.85 0C130.17 0 167.71 13.51 167.71 30.16Z" fill="#EFFF9A"/>
<path d="M96.26 37.24C100.61 40.16 118.01 52.58 123.06 75.82C125.91 88.95 123.6 99.97 121.88 105.86" stroke="#EFFF9A" stroke-width="9" stroke-miterlimit="10"/>
</g>
<defs>
<clipPath id="clip0_3_313">
<rect width="167.71" height="107.12" fill="white"/>
</clipPath>
</defs>
</svg>
