<svg width="245" height="23" viewBox="0 0 245 23" fill="none" xmlns="http://www.w3.org/2000/svg">
<g clip-path="url(#clip0_3_327)">
<path d="M0.140015 21.11C32.39 11.93 67.8 3.3 107.99 1.31C108.8 1.27 109.61 1.23 110.43 1.2C123.2 0.650002 136.46 0.790002 150.24 1.79C161.66 2.62 174.69 4.14 189.14 6.86C189.94 7.01 190.73 7.17 191.53 7.33C192.99 7.61 194.45 7.91 195.93 8.22C197.38 8.52 198.84 8.83 200.32 9.16C214.01 12.2 228.79 16.35 244.59 21.98" stroke="#EFFF9A" stroke-miterlimit="10"/>
<path d="M198.09 11.14C199.338 11.14 200.35 10.1282 200.35 8.88C200.35 7.63184 199.338 6.62 198.09 6.62C196.842 6.62 195.83 7.63184 195.83 8.88C195.83 10.1282 196.842 11.14 198.09 11.14Z" fill="#EFFF9A"/>
<path d="M190.32 8.42C190.999 8.42 191.55 7.86931 191.55 7.19C191.55 6.51069 190.999 5.96 190.32 5.96C189.641 5.96 189.09 6.51069 189.09 7.19C189.09 7.86931 189.641 8.42 190.32 8.42Z" fill="#EFFF9A"/>
<path d="M109.21 2.46C109.889 2.46 110.44 1.90931 110.44 1.23C110.44 0.55069 109.889 0 109.21 0C108.531 0 107.98 0.55069 107.98 1.23C107.98 1.90931 108.531 2.46 109.21 2.46Z" fill="#EFFF9A"/>
</g>
<defs>
<clipPath id="clip0_3_327">
<rect width="244.76" height="22.45" fill="white"/>
</clipPath>
</defs>
</svg>
