<svg width="338" height="172" viewBox="0 0 338 172" fill="none" xmlns="http://www.w3.org/2000/svg">
<g clip-path="url(#clip0_3_337)">
<path d="M184.7 63.37C182.74 61.02 182.23 57.82 183.37 55C183.58 54.47 183.76 53.93 183.94 53.36C187.57 41.05 177.63 27.23 161.78 22.54C151.07 19.37 139.97 21.06 132.81 26.95C130.92 28.5 128.34 29.1 125.89 28.55C109.16 24.76 91.75 24.76 75.06 28.55C72.61 29.09 70.02 28.51 68.13 26.95C60.97 21.07 49.87 19.38 39.16 22.55C31.55 24.8 25.06 29.19 20.88 34.92C16.6 40.78 15.23 47.33 17.01 53.36C17.18 53.93 17.37 54.49 17.59 55.02C18.72 57.84 18.21 61.04 16.25 63.38C5.77 75.93 0 90.2 0 103.54C0 119 6.1 133.21 17.64 144.63C35.39 162.21 64.81 171.9 100.49 171.9C136.17 171.9 165.59 162.21 183.34 144.63C194.88 133.2 200.98 118.99 200.98 103.54C200.97 90.21 195.19 75.94 184.7 63.37ZM48.17 34.74C53.76 34.74 58.29 39.27 58.29 44.86C58.29 50.45 53.76 54.98 48.17 54.98C42.58 54.98 38.05 50.45 38.05 44.86C38.05 39.27 42.58 34.74 48.17 34.74ZM85.58 49.71C87.16 49.71 88.44 50.99 88.44 52.57C88.44 56.88 93.96 60.53 100.48 60.53C107 60.53 112.52 56.89 112.52 52.57C112.52 50.99 113.8 49.71 115.38 49.71C116.96 49.71 118.24 50.99 118.24 52.57C118.24 60.12 110.27 66.26 100.47 66.26C90.67 66.26 82.7 60.12 82.7 52.57C82.71 50.99 83.99 49.71 85.58 49.71ZM152.79 34.74C158.38 34.74 162.91 39.27 162.91 44.86C162.91 50.45 158.38 54.98 152.79 54.98C147.2 54.98 142.67 50.45 142.67 44.86C142.67 39.27 147.2 34.74 152.79 34.74ZM100.48 168.79C65.63 168.79 36.99 159.43 19.82 142.42C19.59 142.19 19.39 141.94 19.16 141.7C25.34 113.02 59.35 91.05 100.48 91.05C141.6 91.05 175.62 113.01 181.8 141.7C181.57 141.93 181.37 142.18 181.14 142.42C163.98 159.43 135.33 168.79 100.48 168.79Z" fill="#EFFF9A"/>
<path d="M288.76 85.51L304.88 68.97C299.83 68.34 294.41 67.99 288.76 67.99C261.56 67.99 239.51 75.92 239.51 85.7C239.51 95.48 261.56 103.41 288.76 103.41C315.96 103.41 338.01 95.48 338.01 85.7C338.01 83.58 336.97 81.55 335.07 79.66L288.76 85.51Z" fill="#EFFF9A"/>
<path d="M336.51 88.14C336.36 88.08 336.21 88.01 336.06 87.94C331.34 85.79 326.62 83.54 321.91 81.21C315.25 77.92 308.59 74.49 301.92 70.96C300.27 70.09 298.61 69.21 296.95 68.31C269.73 53.8 242.24 38.1 213.33 25.47C211.96 24.87 210.57 24.27 209.19 23.69C207.66 23.03 206.12 22.39 204.58 21.76C203.82 21.45 203.06 21.14 202.31 20.83C162.02 4.62001 118.78 -4.78999 69.63 3.68001C54 6.37001 39.9 10.5 27.53 15.16C26.76 15.45 25.99 15.74 25.24 16.03C18.88 18.5 13.01 21.09 7.62999 23.68C6.01999 24.45 4.44999 25.23 2.92999 26" stroke="#EFFF9A" stroke-miterlimit="10"/>
<path d="M211.27 26.8C212.518 26.8 213.53 25.7882 213.53 24.54C213.53 23.2918 212.518 22.28 211.27 22.28C210.022 22.28 209.01 23.2918 209.01 24.54C209.01 25.7882 210.022 26.8 211.27 26.8Z" fill="#EFFF9A"/>
<path d="M203.45 22.51C204.129 22.51 204.68 21.9593 204.68 21.28C204.68 20.6007 204.129 20.05 203.45 20.05C202.771 20.05 202.22 20.6007 202.22 21.28C202.22 21.9593 202.771 22.51 203.45 22.51Z" fill="#EFFF9A"/>
<path d="M26.58 16.5C27.2593 16.5 27.81 15.9493 27.81 15.27C27.81 14.5907 27.2593 14.04 26.58 14.04C25.9007 14.04 25.35 14.5907 25.35 15.27C25.35 15.9493 25.9007 16.5 26.58 16.5Z" fill="#EFFF9A"/>
</g>
<defs>
<clipPath id="clip0_3_337">
<rect width="338.01" height="171.9" fill="white"/>
</clipPath>
</defs>
</svg>
