<svg width="263" height="26" viewBox="0 0 263 26" fill="none" xmlns="http://www.w3.org/2000/svg">
<g clip-path="url(#clip0_3_307)">
<path d="M0.140015 24.94C35.9 14.45 75.45 3.57001 121.21 1.31001C122.02 1.27001 122.83 1.23001 123.65 1.20001C136.42 0.650006 149.68 0.790006 163.46 1.79001C174.88 2.62001 187.91 4.14001 202.36 6.86001C203.16 7.01001 203.95 7.17001 204.75 7.33001C206.21 7.61001 207.67 7.91001 209.15 8.22001C210.6 8.52001 212.06 8.83001 213.54 9.16001C228.45 12.48 244.7 17.1 262.08 23.52" stroke="#EFFF9A" stroke-miterlimit="10"/>
<path d="M211.31 11.14C212.558 11.14 213.57 10.1282 213.57 8.88C213.57 7.63183 212.558 6.62 211.31 6.62C210.062 6.62 209.05 7.63183 209.05 8.88C209.05 10.1282 210.062 11.14 211.31 11.14Z" fill="#EFFF9A"/>
<path d="M203.54 8.42001C204.219 8.42001 204.77 7.86932 204.77 7.19001C204.77 6.5107 204.219 5.96001 203.54 5.96001C202.861 5.96001 202.31 6.5107 202.31 7.19001C202.31 7.86932 202.861 8.42001 203.54 8.42001Z" fill="#EFFF9A"/>
<path d="M122.43 2.46C123.109 2.46 123.66 1.90931 123.66 1.23C123.66 0.55069 123.109 0 122.43 0C121.751 0 121.2 0.55069 121.2 1.23C121.2 1.90931 121.751 2.46 122.43 2.46Z" fill="#EFFF9A"/>
</g>
<defs>
<clipPath id="clip0_3_307">
<rect width="262.26" height="25.42" fill="white"/>
</clipPath>
</defs>
</svg>
