<svg width="51" height="46" viewBox="0 0 51 46" fill="none" xmlns="http://www.w3.org/2000/svg">
<g clip-path="url(#clip0_1_246)">
<path d="M49.13 33.72L31.94 3.95C30.52 1.48 27.96 0 25.1 0C22.24 0 19.69 1.48 18.26 3.95L1.07 33.72C-0.36 36.19 -0.36 39.15 1.07 41.62C2.5 44.09 5.06 45.57 7.91 45.57H42.29C45.15 45.57 47.7 44.09 49.13 41.62C50.56 39.15 50.56 36.2 49.13 33.72Z" fill="#3A6B7C"/>
<path d="M23.23 28.93L21.26 18.83C20.53 16.01 22.15 14.11 24.97 14.11H25.94C28.92 14.11 30.54 16.01 29.81 18.83L27.8 28.93C27.41 30.48 26.87 31.25 25.87 31.25H25.1C24.15 31.25 23.65 30.47 23.23 28.93ZM21.87 36.78V36.12C21.87 33.99 22.91 32.99 25.04 32.99H25.89C28.13 32.99 29.14 34 29.14 36.12V36.78C29.14 38.91 28.1 39.91 25.89 39.91H25.04C22.92 39.91 21.87 38.91 21.87 36.78Z" fill="#EFFF9A"/>
</g>
<defs>
<clipPath id="clip0_1_246">
<rect width="50.2" height="45.57" fill="white"/>
</clipPath>
</defs>
</svg>
