<svg width="44" height="21" viewBox="0 0 44 21" fill="none" xmlns="http://www.w3.org/2000/svg">
<g clip-path="url(#clip0_1_239)">
<path d="M1 9.2C14.94 3.85 28.89 15.02 42.83 9.66" stroke="#EFFF9A" stroke-width="2" stroke-miterlimit="10" stroke-linecap="round"/>
<path d="M30.86 20.31C30.86 20.29 28.48 10.89 19.23 8.88C19.23 8.72 19.85 18.38 30.86 20.31Z" fill="#EFFF9A"/>
<path d="M22.87 0.289997C22.87 0.479997 20.49 8.71 11.24 7.75C11.24 7.9 11.86 -1.78 22.87 0.289997Z" fill="#EFFF9A"/>
<path d="M34.63 4.92999C34.63 4.84999 33.04 11.44 26.87 10.41C26.87 10.25 27.28 4.81999 34.63 4.92999Z" fill="#EFFF9A"/>
<path d="M42.83 15.89C42.83 15.72 41.24 10.8 35.07 11.15C35.07 10.85 35.48 17.94 42.83 15.89Z" fill="#EFFF9A"/>
</g>
<defs>
<clipPath id="clip0_1_239">
<rect width="43.83" height="20.31" fill="white"/>
</clipPath>
</defs>
</svg>
